<?xml version="1.0" encoding="UTF-8" standalone="no"?>
<svg
   id="a"
   width="101.93871"
   height="165.0527"
   viewBox="0 0 101.9387 165.05271"
   version="1.1"
   xml:space="preserve"
   xmlns="http://www.w3.org/2000/svg"
   xmlns:svg="http://www.w3.org/2000/svg"><defs
     id="defs1"><radialGradient
       id="blackRecess"
       cx="35.112343"
       cy="76.896034"
       gradientTransform="scale(1.7088007,0.58520574)"
       fx="35.112343"
       fy="76.896034"
       r="21.360008"
       gradientUnits="userSpaceOnUse"><stop
         offset="0%"
         style="stop-color:#374151;stop-opacity:1"
         id="stop4" /><stop
         offset="100%"
         style="stop-color:#1f2937;stop-opacity:1"
         id="stop5" /></radialGradient><linearGradient
       id="blackSide"
       x1="9.4292803"
       y1="33.824478"
       x2="9.4292803"
       y2="117.83079"
       gradientTransform="scale(1.166579,0.85720727)"
       gradientUnits="userSpaceOnUse"><stop
         offset="0%"
         style="stop-color:#374151;stop-opacity:1"
         id="stop6" /><stop
         offset="50%"
         style="stop-color:#1f2937;stop-opacity:1"
         id="stop7" /><stop
         offset="100%"
         style="stop-color:#111827;stop-opacity:1"
         id="stop8" /></linearGradient><radialGradient
       id="bottomShadow"
       cx="28.284271"
       cy="222.73865"
       gradientTransform="scale(2.1213203,0.47140452)"
       fx="28.284271"
       fy="222.73865"
       r="21.213203"
       gradientUnits="userSpaceOnUse"><stop
         offset="0%"
         style="stop-color:#000000;stop-opacity:0.5"
         id="stop9" /><stop
         offset="100%"
         style="stop-color:#000000;stop-opacity:0"
         id="stop10" /></radialGradient></defs><g
     id="g3"
     transform="translate(-61.480956,-61.82572)"><g
       id="g1"
       transform="translate(52.415887,111.87842)"><ellipse
         cx="60"
         cy="105"
         rx="45"
         ry="10"
         fill="url(#bottomShadow)"
         id="ellipse10"
         style="fill:url(#bottomShadow)" /><ellipse
         cx="60"
         cy="85"
         rx="48"
         ry="16"
         fill="#111827"
         stroke="#030712"
         stroke-width="2"
         id="ellipse11" /><path
         d="M 12,85 V 45 q 0,-10 48,-15 48,5 48,15 V 85 Q 108,95 60,100 12,95 12,85 Z"
         fill="url(#blackSide)"
         stroke="#111827"
         stroke-width="2"
         id="path11"
         style="fill:url(#blackSide)" /><ellipse
         cx="60"
         cy="45"
         rx="48"
         ry="16"
         fill="url(#blackTop)"
         stroke="#4b5563"
         stroke-width="2"
         id="ellipse12"
         style="fill:#d35f5f" /><line
         x1="16"
         y1="51.400002"
         x2="16"
         y2="91.400002"
         stroke="#000000"
         stroke-width="2"
         opacity="0.9"
         id="line13" /><line
         x1="17.5"
         y1="51.400002"
         x2="17.5"
         y2="91.400002"
         stroke="#ffffff"
         stroke-width="1.5"
         opacity="0.5"
         id="line14" /><ellipse
         cx="16.75"
         cy="51.400002"
         rx="1.5"
         ry="0.80000001"
         fill="#000000"
         opacity="0.7"
         id="ellipse14" /><line
         x1="21"
         y1="54.330002"
         x2="21"
         y2="94.330002"
         stroke="#000000"
         stroke-width="2"
         opacity="0.9"
         id="line15" /><line
         x1="22.5"
         y1="54.330002"
         x2="22.5"
         y2="94.330002"
         stroke="#ffffff"
         stroke-width="1.5"
         opacity="0.5"
         id="line16" /><ellipse
         cx="21.75"
         cy="54.330002"
         rx="1.5"
         ry="0.80000001"
         fill="#000000"
         opacity="0.7"
         id="ellipse16" /><line
         x1="26"
         y1="56.290001"
         x2="26"
         y2="96.290001"
         stroke="#000000"
         stroke-width="2"
         opacity="0.9"
         id="line17" /><ellipse
         cx="60"
         cy="45"
         rx="36"
         ry="12"
         fill="url(#blackRecess)"
         stroke="#1f2937"
         stroke-width="1"
         id="ellipse13"
         style="fill:url(#blackRecess)" /><line
         x1="27.5"
         y1="56.290001"
         x2="27.5"
         y2="96.290001"
         stroke="#ffffff"
         stroke-width="1.5"
         opacity="0.5"
         id="line18" /><ellipse
         cx="26.75"
         cy="56.290001"
         rx="1.5"
         ry="0.80000001"
         fill="#000000"
         opacity="0.7"
         id="ellipse18" /><line
         x1="31"
         y1="57.75"
         x2="31"
         y2="97.75"
         stroke="#000000"
         stroke-width="2"
         opacity="0.9"
         id="line19" /><line
         x1="32.5"
         y1="57.75"
         x2="32.5"
         y2="97.75"
         stroke="#ffffff"
         stroke-width="1.5"
         opacity="0.5"
         id="line20" /><ellipse
         cx="31.75"
         cy="57.75"
         rx="1.5"
         ry="0.80000001"
         fill="#000000"
         opacity="0.7"
         id="ellipse20" /><line
         x1="36"
         y1="58.860001"
         x2="36"
         y2="98.860001"
         stroke="#000000"
         stroke-width="2"
         opacity="0.9"
         id="line21" /><line
         x1="37.5"
         y1="58.860001"
         x2="37.5"
         y2="98.860001"
         stroke="#ffffff"
         stroke-width="1.5"
         opacity="0.5"
         id="line22" /><ellipse
         cx="36.75"
         cy="58.860001"
         rx="1.5"
         ry="0.80000001"
         fill="#000000"
         opacity="0.7"
         id="ellipse22" /><line
         x1="41"
         y1="59.689999"
         x2="41"
         y2="99.690002"
         stroke="#000000"
         stroke-width="2"
         opacity="0.9"
         id="line23" /><line
         x1="42.5"
         y1="59.689999"
         x2="42.5"
         y2="99.690002"
         stroke="#ffffff"
         stroke-width="1.5"
         opacity="0.5"
         id="line24" /><ellipse
         cx="41.75"
         cy="59.689999"
         rx="1.5"
         ry="0.80000001"
         fill="#000000"
         opacity="0.7"
         id="ellipse24" /><line
         x1="46"
         y1="60.299999"
         x2="46"
         y2="100.3"
         stroke="#000000"
         stroke-width="2"
         opacity="0.9"
         id="line25" /><line
         x1="47.5"
         y1="60.299999"
         x2="47.5"
         y2="100.3"
         stroke="#ffffff"
         stroke-width="1.5"
         opacity="0.5"
         id="line26" /><ellipse
         cx="46.75"
         cy="60.299999"
         rx="1.5"
         ry="0.80000001"
         fill="#000000"
         opacity="0.7"
         id="ellipse26" /><line
         x1="51"
         y1="60.720001"
         x2="51"
         y2="100.72"
         stroke="#000000"
         stroke-width="2"
         opacity="0.9"
         id="line27" /><line
         x1="52.5"
         y1="60.720001"
         x2="52.5"
         y2="100.72"
         stroke="#ffffff"
         stroke-width="1.5"
         opacity="0.5"
         id="line28" /><ellipse
         cx="51.75"
         cy="60.720001"
         rx="1.5"
         ry="0.80000001"
         fill="#000000"
         opacity="0.7"
         id="ellipse28" /><line
         x1="56"
         y1="60.939999"
         x2="56"
         y2="100.94"
         stroke="#000000"
         stroke-width="2"
         opacity="0.9"
         id="line29" /><line
         x1="57.5"
         y1="60.939999"
         x2="57.5"
         y2="100.94"
         stroke="#ffffff"
         stroke-width="1.5"
         opacity="0.5"
         id="line30" /><ellipse
         cx="56.75"
         cy="60.939999"
         rx="1.5"
         ry="0.80000001"
         fill="#000000"
         opacity="0.7"
         id="ellipse30" /><line
         x1="60"
         y1="61"
         x2="60"
         y2="101"
         stroke="#000000"
         stroke-width="2"
         opacity="0.9"
         id="line31" /><line
         x1="61.5"
         y1="61"
         x2="61.5"
         y2="101"
         stroke="#ffffff"
         stroke-width="1.5"
         opacity="0.5"
         id="line32" /><ellipse
         cx="60.75"
         cy="61"
         rx="1.5"
         ry="0.80000001"
         fill="#000000"
         opacity="0.7"
         id="ellipse32" /><line
         x1="64"
         y1="60.939999"
         x2="64"
         y2="100.94"
         stroke="#000000"
         stroke-width="2"
         opacity="0.9"
         id="line33" /><line
         x1="65.5"
         y1="60.939999"
         x2="65.5"
         y2="100.94"
         stroke="#ffffff"
         stroke-width="1.5"
         opacity="0.5"
         id="line34" /><ellipse
         cx="64.75"
         cy="60.939999"
         rx="1.5"
         ry="0.80000001"
         fill="#000000"
         opacity="0.7"
         id="ellipse34" /><line
         x1="69"
         y1="60.720001"
         x2="69"
         y2="100.72"
         stroke="#000000"
         stroke-width="2"
         opacity="0.9"
         id="line35" /><line
         x1="70.5"
         y1="60.720001"
         x2="70.5"
         y2="100.72"
         stroke="#ffffff"
         stroke-width="1.5"
         opacity="0.5"
         id="line36" /><ellipse
         cx="69.75"
         cy="60.720001"
         rx="1.5"
         ry="0.80000001"
         fill="#000000"
         opacity="0.7"
         id="ellipse36" /><line
         x1="74"
         y1="60.299999"
         x2="74"
         y2="100.3"
         stroke="#000000"
         stroke-width="2"
         opacity="0.9"
         id="line37" /><line
         x1="75.5"
         y1="60.299999"
         x2="75.5"
         y2="100.3"
         stroke="#ffffff"
         stroke-width="1.5"
         opacity="0.5"
         id="line38" /><ellipse
         cx="74.75"
         cy="60.299999"
         rx="1.5"
         ry="0.80000001"
         fill="#000000"
         opacity="0.7"
         id="ellipse38" /><line
         x1="79"
         y1="59.689999"
         x2="79"
         y2="99.690002"
         stroke="#000000"
         stroke-width="2"
         opacity="0.9"
         id="line39" /><line
         x1="80.5"
         y1="59.689999"
         x2="80.5"
         y2="99.690002"
         stroke="#ffffff"
         stroke-width="1.5"
         opacity="0.5"
         id="line40" /><ellipse
         cx="79.75"
         cy="59.689999"
         rx="1.5"
         ry="0.80000001"
         fill="#000000"
         opacity="0.7"
         id="ellipse40" /><line
         x1="84"
         y1="58.860001"
         x2="84"
         y2="98.860001"
         stroke="#000000"
         stroke-width="2"
         opacity="0.9"
         id="line41" /><line
         x1="85.5"
         y1="58.860001"
         x2="85.5"
         y2="98.860001"
         stroke="#ffffff"
         stroke-width="1.5"
         opacity="0.5"
         id="line42" /><ellipse
         cx="84.75"
         cy="58.860001"
         rx="1.5"
         ry="0.80000001"
         fill="#000000"
         opacity="0.7"
         id="ellipse42" /><line
         x1="89"
         y1="57.75"
         x2="89"
         y2="97.75"
         stroke="#000000"
         stroke-width="2"
         opacity="0.9"
         id="line43" /><line
         x1="90.5"
         y1="57.75"
         x2="90.5"
         y2="97.75"
         stroke="#ffffff"
         stroke-width="1.5"
         opacity="0.5"
         id="line44" /><ellipse
         cx="89.75"
         cy="57.75"
         rx="1.5"
         ry="0.80000001"
         fill="#000000"
         opacity="0.7"
         id="ellipse44" /><line
         x1="94"
         y1="56.290001"
         x2="94"
         y2="96.290001"
         stroke="#000000"
         stroke-width="2"
         opacity="0.9"
         id="line45" /><line
         x1="95.5"
         y1="56.290001"
         x2="95.5"
         y2="96.290001"
         stroke="#ffffff"
         stroke-width="1.5"
         opacity="0.5"
         id="line46" /><ellipse
         cx="94.75"
         cy="56.290001"
         rx="1.5"
         ry="0.80000001"
         fill="#000000"
         opacity="0.7"
         id="ellipse46" /><line
         x1="99"
         y1="54.330002"
         x2="99"
         y2="94.330002"
         stroke="#000000"
         stroke-width="2"
         opacity="0.9"
         id="line47" /><line
         x1="100.5"
         y1="54.330002"
         x2="100.5"
         y2="94.330002"
         stroke="#ffffff"
         stroke-width="1.5"
         opacity="0.5"
         id="line48" /><ellipse
         cx="99.75"
         cy="54.330002"
         rx="1.5"
         ry="0.80000001"
         fill="#000000"
         opacity="0.7"
         id="ellipse48" /><line
         x1="104"
         y1="51.400002"
         x2="104"
         y2="91.400002"
         stroke="#000000"
         stroke-width="2"
         opacity="0.9"
         id="line49" /><line
         x1="105.5"
         y1="51.400002"
         x2="105.5"
         y2="91.400002"
         stroke="#ffffff"
         stroke-width="1.5"
         opacity="0.5"
         id="line50" /><ellipse
         cx="104.75"
         cy="51.400002"
         rx="1.5"
         ry="0.80000001"
         fill="#000000"
         opacity="0.7"
         id="ellipse50" /></g><g
       id="g2"
       transform="matrix(0.42788241,0,0,0.41753103,61.478816,61.827546)"><path
         id="c"
         d="m 120.92,196.13 52.84,5.67 21.51,-5.67 16.61,-31.73 -4.53,-15.86 c 0,0 1.9,-5.47 1.89,-8.31 -0.02,-4.92 -0.57,-10.33 -3.4,-14.35 -2.25,-3.2 -7.08,-7.09 -10.88,-8.02 -10.86,-2.64 -19.08,1.8 -28.37,8.02 0,0 -6.68,-4.14 -14.87,-7.38 -2.81,-1.11 -7.43,-2.12 -9.67,-2.81 -5.97,-1.85 -20.38,-3.02 -20.38,-3.02 h -5.11 c 0,0 -14.41,1.17 -20.38,3.02 -2.24,0.69 -6.85,1.7 -9.67,2.81 -8.19,3.24 -14.87,7.38 -14.87,7.38 -9.3,-6.22 -17.52,-10.66 -28.37,-8.02 -3.8,0.92 -8.63,4.82 -10.88,8.02 -2.82,4.02 -3.37,9.44 -3.4,14.35 -0.01,2.84 1.89,8.31 1.89,8.31 l -4.53,15.86 16.61,31.73 21.51,5.67 52.84,-5.67 h 3.6 z"
         fill="#ce1126" /><path
         id="d"
         d="m 107.8,121.21 -0.28,-0.28 c 0,0 -14.63,1.64 -20.56,4.4 -6.98,3.25 -11.06,6.76 -17.44,11.07 -3.77,2.54 -8.35,5.98 -12.76,7.1 -3.12,0.79 -7.44,0.32 -10.49,-0.71 -2.46,-0.83 -4.44,-2.57 -5.96,-4.68 -1.43,-1.98 -1.97,-4.37 -1.99,-6.81 -0.02,-2.97 0.35,-4.53 1.84,-7.1 1.8,-3.09 8.12,-6.91 11.77,-6.67 v 0 l 2.13,0.14 5.39,1.42 12.05,6.67 8.37,-3.83 6.95,-3.69 9.22,-2.7 11.2,-1.42 h 23.77 l 11.2,1.42 9.22,2.7 6.95,3.69 8.37,3.83 12.05,-6.67 5.39,-1.42 2.13,-0.14 v 0 c 3.65,-0.24 9.97,3.58 11.77,6.67 1.49,2.57 1.86,4.12 1.84,7.1 -0.02,2.44 -0.56,4.83 -1.99,6.81 -1.52,2.11 -3.5,3.85 -5.96,4.68 -3.05,1.03 -7.37,1.5 -10.49,0.71 -4.41,-1.12 -8.99,-4.55 -12.76,-7.1 -6.38,-4.31 -10.46,-7.82 -17.44,-11.07 -5.94,-2.76 -20.56,-4.4 -20.56,-4.4 l -0.28,0.28 h -22.64 z"
         fill="#de4f40"
         style="fill:#2a2aff" /><path
         id="e"
         d="m 52.69,124.42 c -2.11,0.1 -4.41,0.55 -5.59,1.46 -3.22,2.49 -4.43,6.01 -0.57,9.79 2.33,2.28 6.76,1.88 10.07,1.3 2.8,-0.49 5.72,-2.2 7.94,-3.97 l 8.51,-6.83 -7.08,2.32 -2.22,-0.22 c -2.36,-0.24 -4.87,-3.1 -7.72,-3.66 -0.88,-0.17 -2.07,-0.25 -3.34,-0.19 z m 131.63,0 c -0.8,0.02 -1.54,0.08 -2.13,0.19 -2.85,0.56 -5.36,3.42 -7.72,3.66 l -2.22,0.22 -7.08,-2.32 8.51,6.83 c 2.22,1.78 5.14,3.48 7.94,3.97 3.31,0.58 7.74,0.98 10.07,-1.3 3.86,-3.78 2.65,-7.3 -0.57,-9.79 -1.42,-1.1 -4.4,-1.51 -6.8,-1.46 z"
         fill="#ba1b24" /><path
         id="f"
         d="m 113.84,187.8 -34.44,8.76 -34.44,-0.29 -14.3,-28.91 -1.11,-24.55 c 6.71,9.13 11.73,14.72 32.12,12.69 8.4,-1.13 23.4,-11.2 31.11,-14.73 8.41,-3.85 21.64,-7.42 21.64,-7.42 h 9.39 c 0,0 13.23,3.57 21.64,7.42 7.7,3.53 22.71,13.6 31.11,14.73 20.39,2.03 25.41,-3.56 32.12,-12.69 l -1.11,24.55 -14.3,28.91 -34.44,0.29 -34.44,-8.76 z"
         fill="#c31525" /><path
         id="g"
         d="m 113.55,188.09 -38.23,9.64 -29.77,-0.88 -14.59,-28.04 -1.17,-4.67 c 0,0 18.64,12.81 27.57,14.27 10.54,1.73 18.94,-0.19 29.22,-3.09 11.44,-3.23 32.53,-18.19 32.53,-18.19 0,0 21.09,14.97 32.53,18.19 10.28,2.9 18.68,4.82 29.22,3.09 8.93,-1.47 27.57,-14.27 27.57,-14.27 l -1.17,4.67 -14.59,28.04 -29.77,0.88 -38.23,-9.64"
         fill="#aa1921" /><path
         id="h"
         d="M 117.32,196.13 64.48,201.8 42.97,196.13 26.36,164.4 30.89,148.54 c 0,0 -1.9,-5.47 -1.89,-8.31 0.02,-4.92 0.57,-10.33 3.4,-14.35 2.25,-3.2 7.08,-7.09 10.88,-8.02 10.86,-2.64 19.08,1.8 28.37,8.02 0,0 6.68,-4.14 14.87,-7.38 2.81,-1.11 7.43,-2.12 9.67,-2.81 5.97,-1.85 20.38,-3.02 20.38,-3.02 h 5.11 c 0,0 14.41,1.17 20.38,3.02 2.24,0.69 6.85,1.7 9.67,2.81 8.19,3.24 14.87,7.38 14.87,7.38 9.3,-6.22 17.52,-10.66 28.37,-8.02 3.8,0.92 8.63,4.82 10.88,8.02 2.82,4.02 3.37,9.44 3.4,14.35 0.01,2.84 -1.89,8.31 -1.89,8.31 l 4.53,15.86 -16.61,31.73 -21.51,5.67 -52.84,-5.67 h -3.6 z"
         fill="none"
         stroke="#1a1a1a"
         stroke-miterlimit="4.07"
         stroke-width="1.17" /><g
         id="j"><g
           id="k"><path
             id="l"
             d="M 124.15,60.15 C 104.39,59.13 79.35,65.85 58.12,80.74 36.89,95.63 19.6,119.3 17.94,151.23 l 13.2,0.69 c 1.44,-27.58 15.89,-47.25 34.57,-60.35 18.68,-13.1 41.72,-19.04 57.77,-18.21 l 0.68,-13.21 v 0 z"
             fill="#f3d328"
             fill-rule="evenodd" /><path
             id="m"
             d="m 24.53,151.58 6.6,0.34 C 32.57,124.34 47.02,104.67 65.7,91.57 84.38,78.47 107.42,72.53 123.47,73.36 l 0.34,-6.6 C 92.23,67.04 32.55,86.31 24.53,151.59 Z"
             fill="#eac102"
             fill-rule="evenodd" /><path
             id="n"
             d="M 124.15,60.15 C 104.39,59.13 79.35,65.85 58.12,80.74 36.89,95.63 19.6,119.3 17.94,151.23 l 13.2,0.69 c 1.44,-27.58 15.89,-47.25 34.57,-60.35 18.68,-13.1 41.72,-19.04 57.77,-18.21 l 0.68,-13.21 v 0 z"
             fill="none"
             stroke="#000000"
             stroke-miterlimit="4.07"
             stroke-width="1.17" /></g><g
           id="o"
           style="fill:#ffaaaa"><ellipse
             id="p"
             cx="9.8900003"
             cy="138.00999"
             rx="9.6599998"
             ry="9.6700001"
             fill="#cccccc"
             style="fill:#ffaaaa" /><ellipse
             id="q"
             cx="9.2299995"
             cy="136.74001"
             rx="7.3000002"
             ry="7.5"
             transform="rotate(-87.3,9.2270851,136.73422)"
             fill="#e6e6e6"
             style="fill:#ffaaaa" /><ellipse
             id="r"
             cx="7.98"
             cy="135.41"
             rx="5.5700002"
             ry="5.54"
             transform="rotate(-87.75,7.9856571,135.40654)"
             fill="#ffffff"
             style="fill:#ffaaaa" /><ellipse
             id="s"
             cx="9.8900003"
             cy="138.00999"
             rx="9.6599998"
             ry="9.6700001"
             fill="none"
             stroke="#1a1a1a"
             stroke-width="0.45"
             style="fill:#ffaaaa" /></g><g
           id="t"
           style="fill:#ffaaaa"><ellipse
             id="u"
             cx="15.15"
             cy="119.24"
             rx="9.6599998"
             ry="9.6700001"
             fill="#cccccc"
             style="fill:#ffaaaa" /><ellipse
             id="v"
             cx="14.5"
             cy="117.97"
             rx="7.3000002"
             ry="7.5"
             transform="rotate(-87.3,14.4975,117.96553)"
             fill="#e6e6e6"
             style="fill:#ffaaaa" /><ellipse
             id="w"
             cx="13.25"
             cy="116.63"
             rx="5.5700002"
             ry="5.54"
             transform="rotate(-87.75,13.254863,116.6344)"
             fill="#ffffff"
             style="fill:#ffaaaa" /><ellipse
             id="x"
             cx="15.15"
             cy="119.24"
             rx="9.6599998"
             ry="9.6700001"
             fill="none"
             stroke="#1a1a1a"
             stroke-width="0.45"
             style="fill:#ffaaaa" /></g><g
           id="y"
           style="fill:#ffaaaa"><ellipse
             id="z"
             cx="24.190001"
             cy="102.29"
             rx="9.6599998"
             ry="9.6700001"
             fill="#cccccc"
             style="fill:#ffaaaa" /><ellipse
             id="aa"
             cx="23.540001"
             cy="101.02"
             rx="7.3000002"
             ry="7.5"
             transform="rotate(-87.3,23.535659,101.01912)"
             fill="#e6e6e6"
             style="fill:#ffaaaa" /><ellipse
             id="ab"
             cx="22.290001"
             cy="99.690002"
             rx="5.5700002"
             ry="5.54"
             transform="rotate(-87.75,22.29464,99.686211)"
             fill="#ffffff"
             style="fill:#ffaaaa" /><ellipse
             id="ac"
             cx="24.190001"
             cy="102.29"
             rx="9.6599998"
             ry="9.6700001"
             fill="none"
             stroke="#1a1a1a"
             stroke-width="0.45"
             style="fill:#ffaaaa" /></g><g
           id="ad"
           style="fill:#ffaaaa"><ellipse
             id="ae"
             cx="36.189999"
             cy="86.860001"
             rx="9.6599998"
             ry="9.6700001"
             fill="#cccccc"
             style="fill:#ffaaaa" /><ellipse
             id="af"
             cx="35.540001"
             cy="85.589996"
             rx="7.3000002"
             ry="7.5"
             transform="rotate(-87.3,35.535011,85.586094)"
             fill="#e6e6e6"
             style="fill:#ffaaaa" /><ellipse
             id="ag"
             cx="34.290001"
             cy="84.25"
             rx="5.5700002"
             ry="5.54"
             transform="rotate(-87.75,34.292752,84.25138)"
             fill="#ffffff"
             style="fill:#ffaaaa" /><ellipse
             id="ah"
             cx="36.189999"
             cy="86.860001"
             rx="9.6599998"
             ry="9.6700001"
             fill="none"
             stroke="#1a1a1a"
             stroke-width="0.45"
             style="fill:#ffaaaa" /></g><g
           id="ai"
           style="fill:#ffaaaa"><ellipse
             id="aj"
             cx="50.830002"
             cy="74.029999"
             rx="9.6599998"
             ry="9.6700001"
             fill="#cccccc"
             style="fill:#ffaaaa" /><ellipse
             id="ak"
             cx="50.169998"
             cy="72.760002"
             rx="7.3000002"
             ry="7.5"
             transform="rotate(-87.3,50.167694,72.755239)"
             fill="#e6e6e6"
             style="fill:#ffaaaa" /><ellipse
             id="al"
             cx="48.93"
             cy="71.419998"
             rx="5.5700002"
             ry="5.54"
             transform="rotate(-87.75,48.928823,71.422951)"
             fill="#ffffff"
             style="fill:#ffaaaa" /><ellipse
             id="am"
             cx="50.830002"
             cy="74.029999"
             rx="9.6599998"
             ry="9.6700001"
             fill="none"
             stroke="#1a1a1a"
             stroke-width="0.45"
             style="fill:#ffaaaa" /></g><g
           id="an"
           style="fill:#ffaaaa"><ellipse
             id="ao"
             cx="67.550003"
             cy="63.77"
             rx="9.6599998"
             ry="9.6700001"
             fill="#cccccc"
             style="fill:#ffaaaa" /><ellipse
             id="ap"
             cx="66.889999"
             cy="62.5"
             rx="7.3000002"
             ry="7.5"
             transform="rotate(-87.3,66.88995,62.498383)"
             fill="#e6e6e6"
             style="fill:#ffaaaa" /><ellipse
             id="aq"
             cx="65.650002"
             cy="61.169998"
             rx="5.5700002"
             ry="5.54"
             transform="rotate(-87.75,65.646034,61.16594)"
             fill="#ffffff"
             style="fill:#ffaaaa" /><ellipse
             id="ar"
             cx="67.550003"
             cy="63.77"
             rx="9.6599998"
             ry="9.6700001"
             fill="none"
             stroke="#1a1a1a"
             stroke-width="0.45"
             style="fill:#ffaaaa" /></g><g
           id="as"
           style="fill:#ffaaaa"><ellipse
             id="at"
             cx="85.519997"
             cy="56.330002"
             rx="9.6599998"
             ry="9.6700001"
             fill="#cccccc"
             style="fill:#ffaaaa" /><ellipse
             id="au"
             cx="84.860001"
             cy="55.060001"
             rx="7.3000002"
             ry="7.5"
             transform="rotate(-87.3,84.857057,55.060867)"
             fill="#e6e6e6"
             style="fill:#ffaaaa" /><ellipse
             id="av"
             cx="83.610001"
             cy="53.73"
             rx="5.5700002"
             ry="5.54"
             transform="rotate(-87.75,83.617568,53.726178)"
             fill="#ffffff"
             style="fill:#ffaaaa" /><ellipse
             id="aw"
             cx="85.519997"
             cy="56.330002"
             rx="9.6599998"
             ry="9.6700001"
             fill="none"
             stroke="#1a1a1a"
             stroke-width="0.45"
             style="fill:#ffaaaa" /></g></g><ellipse
         id="gg-8"
         cx="7.910902"
         cy="134.17441"
         rx="3.6674006"
         ry="2.6335015"
         fill="#ffffff"
         style="stroke-width:0.709534" /><g
         id="ax"><g
           id="ay"><path
             id="az"
             d="m 114.09,60.15 c 19.76,-1.02 44.8,5.7 66.03,20.59 21.23,14.89 38.52,38.56 40.18,70.49 l -13.2,0.69 C 205.66,124.34 191.21,104.67 172.53,91.57 153.85,78.47 130.81,72.53 114.76,73.36 l -0.68,-13.21 v 0 z"
             fill="#f3d328"
             fill-rule="evenodd" /><path
             id="ba"
             d="m 213.71,151.58 -6.6,0.34 C 205.67,124.34 191.22,104.67 172.54,91.57 153.86,78.47 130.82,72.53 114.77,73.36 l -0.34,-6.6 c 31.58,0.28 91.26,19.55 99.28,84.83 z"
             fill="#eac102"
             fill-rule="evenodd" /><path
             id="bb"
             d="m 114.09,60.15 c 19.76,-1.02 44.8,5.7 66.03,20.59 21.23,14.89 38.52,38.56 40.18,70.49 l -13.2,0.69 C 205.66,124.34 191.21,104.67 172.53,91.57 153.85,78.47 130.81,72.53 114.76,73.36 l -0.68,-13.21 v 0 z"
             fill="none"
             stroke="#000000"
             stroke-miterlimit="4.07"
             stroke-width="1.17" /></g><g
           id="bc"
           style="fill:#ffaaaa"><ellipse
             id="bd"
             cx="228.36"
             cy="138.00999"
             rx="9.6599998"
             ry="9.6700001"
             fill="#cccccc"
             style="fill:#ffaaaa" /><ellipse
             id="be"
             cx="229.00999"
             cy="136.74001"
             rx="7.5"
             ry="7.3000002"
             transform="rotate(-2.7,229.22321,137.01874)"
             fill="#e6e6e6"
             style="fill:#ffaaaa" /><ellipse
             id="bf"
             cx="230.25999"
             cy="135.41"
             rx="5.54"
             ry="5.5700002"
             transform="rotate(-2.25,230.14828,135.4422)"
             fill="#ffffff"
             style="fill:#ffaaaa" /><ellipse
             id="bg"
             cx="228.36"
             cy="138.00999"
             rx="9.6599998"
             ry="9.6700001"
             fill="none"
             stroke="#1a1a1a"
             stroke-width="0.45"
             style="fill:#ffaaaa" /></g><g
           id="bh"
           style="fill:#ffaaaa"><ellipse
             id="bi"
             cx="223.09"
             cy="119.24"
             rx="9.6599998"
             ry="9.6700001"
             fill="#cccccc"
             style="fill:#ffaaaa" /><ellipse
             id="bj"
             cx="223.74001"
             cy="117.97"
             rx="7.5"
             ry="7.3000002"
             transform="rotate(-2.7,224.14686,118.21801)"
             fill="#e6e6e6"
             style="fill:#ffaaaa" /><ellipse
             id="bk"
             cx="224.99001"
             cy="116.63"
             rx="5.54"
             ry="5.5700002"
             transform="rotate(-2.25,224.91674,116.49068)"
             fill="#ffffff"
             style="fill:#ffaaaa" /><ellipse
             id="bl"
             cx="223.09"
             cy="119.24"
             rx="9.6599998"
             ry="9.6700001"
             fill="none"
             stroke="#1a1a1a"
             stroke-width="0.45"
             style="fill:#ffaaaa" /></g><g
           id="bm"
           style="fill:#ffaaaa"><ellipse
             id="bn"
             cx="214.05"
             cy="102.29"
             rx="9.6599998"
             ry="9.6700001"
             fill="#cccccc"
             style="fill:#ffaaaa" /><ellipse
             id="bo"
             cx="214.7"
             cy="101.02"
             rx="7.5"
             ry="7.3000002"
             transform="rotate(-2.7,214.99434,101.2318)"
             fill="#e6e6e6"
             style="fill:#ffaaaa" /><ellipse
             id="bp"
             cx="215.95"
             cy="99.690002"
             rx="5.54"
             ry="5.5700002"
             transform="rotate(-2.25,215.82098,99.755694)"
             fill="#ffffff"
             style="fill:#ffaaaa" /><ellipse
             id="bq"
             cx="214.05"
             cy="102.29"
             rx="9.6599998"
             ry="9.6700001"
             fill="none"
             stroke="#1a1a1a"
             stroke-width="0.45"
             style="fill:#ffaaaa" /></g><g
           id="br"
           style="fill:#ffaaaa"><ellipse
             id="bs"
             cx="202.05"
             cy="86.860001"
             rx="9.6599998"
             ry="9.6700001"
             fill="#cccccc"
             style="fill:#ffaaaa" /><ellipse
             id="bt"
             cx="202.7"
             cy="85.589996"
             rx="7.5"
             ry="7.3000002"
             transform="rotate(-2.7,203.04863,85.665749)"
             fill="#e6e6e6"
             style="fill:#ffaaaa" /><ellipse
             id="bu"
             cx="203.95"
             cy="84.25"
             rx="5.54"
             ry="5.5700002"
             transform="rotate(-2.25,203.89945,84.238783)"
             fill="#ffffff"
             style="fill:#ffaaaa" /><ellipse
             id="bv"
             cx="202.05"
             cy="86.860001"
             rx="9.6599998"
             ry="9.6700001"
             fill="none"
             stroke="#1a1a1a"
             stroke-width="0.45"
             style="fill:#ffaaaa" /></g><g
           id="bw"
           style="fill:#ffaaaa"><ellipse
             id="bx"
             cx="187.41"
             cy="74.029999"
             rx="9.6599998"
             ry="9.6700001"
             fill="#cccccc"
             style="fill:#ffaaaa" /><ellipse
             id="by"
             cx="188.07001"
             cy="72.760002"
             rx="7.5"
             ry="7.3000002"
             transform="rotate(-2.7,188.27975,72.792877)"
             fill="#e6e6e6"
             style="fill:#ffaaaa" /><ellipse
             id="bz"
             cx="189.32001"
             cy="71.419998"
             rx="5.54"
             ry="5.5700002"
             transform="rotate(-2.25,189.37677,71.472639)"
             fill="#ffffff"
             style="fill:#ffaaaa" /><ellipse
             id="ca"
             cx="187.41"
             cy="74.029999"
             rx="9.6599998"
             ry="9.6700001"
             fill="none"
             stroke="#1a1a1a"
             stroke-width="0.45"
             style="fill:#ffaaaa" /></g><g
           id="cb"
           style="fill:#ffaaaa"><ellipse
             id="cc"
             cx="170.69"
             cy="63.77"
             rx="9.6599998"
             ry="9.6700001"
             fill="#cccccc"
             style="fill:#ffaaaa" /><ellipse
             id="cd"
             cx="171.35001"
             cy="62.5"
             rx="7.5"
             ry="7.3000002"
             transform="rotate(-2.7,171.53637,62.63318)"
             fill="#e6e6e6"
             style="fill:#ffaaaa" /><ellipse
             id="ce"
             cx="172.60001"
             cy="61.169998"
             rx="5.54"
             ry="5.5700002"
             transform="rotate(-2.25,172.51255,61.207647)"
             fill="#ffffff"
             style="fill:#ffaaaa" /><ellipse
             id="cf"
             cx="170.69"
             cy="63.77"
             rx="9.6599998"
             ry="9.6700001"
             fill="none"
             stroke="#1a1a1a"
             stroke-width="0.45"
             style="fill:#ffaaaa" /></g><g
           id="cg"
           style="fill:#ffaaaa"><ellipse
             id="ch"
             cx="152.73"
             cy="56.330002"
             rx="9.6599998"
             ry="9.6700001"
             fill="#cccccc"
             style="fill:#ffaaaa" /><ellipse
             id="ci"
             cx="153.38"
             cy="55.060001"
             rx="7.5"
             ry="7.3000002"
             transform="rotate(-2.7,153.66714,55.206659)"
             fill="#e6e6e6"
             style="fill:#ffaaaa" /><ellipse
             id="cj"
             cx="154.63"
             cy="53.73"
             rx="5.54"
             ry="5.5700002"
             transform="rotate(-2.25,154.57488,53.723421)"
             fill="#ffffff"
             style="fill:#ffaaaa" /><ellipse
             id="ck"
             cx="152.73"
             cy="56.330002"
             rx="9.6599998"
             ry="9.6700001"
             fill="none"
             stroke="#1a1a1a"
             stroke-width="0.45"
             style="fill:#ffaaaa" /></g></g><path
         id="cm"
         d="m 134.64,61.34 7.84,2.16 c -3.93,14.25 -9.03,44.63 -10.28,69.61 l -13.08,1.7 -13.08,-1.7 C 104.8,108.14 99.69,77.75 95.76,63.5 l 7.84,-2.16 z"
         fill="#f3d328"
         fill-rule="evenodd"
         stroke="#000000"
         stroke-miterlimit="4.2"
         stroke-width="1.17" /><g
         id="cn"><path
           id="co"
           d="m 115.43,14.58 c -1.17,-5.51 -6.12,-9.8 -10.94,-14.14 9.81,1.06 19.61,0.74 29.42,0 -4.43,4.52 -10.76,8.51 -11.2,14.14 5.71,-2.48 9.39,-7.49 13.79,-11.62 -1.04,8.3 -0.32,16.59 0,24.89 -4.37,-3.51 -8.09,-7.96 -13.79,-9.53 1.69,5.15 5.86,9.1 11.31,12.44 h -29.86 c 4.94,-3.46 9.42,-7.22 11.27,-12.44 -5.42,1.75 -9.32,6.28 -13.68,9.98 0.77,-8.37 0.68,-16.74 0,-25.11 4.19,4.56 8.11,9.71 13.68,11.39 z"
           fill="#f3d328"
           stroke="#1a1a1a"
           stroke-width="0.67" /><g
           id="cp"
           style="fill:#d35f5f"><circle
             id="cq"
             cx="119.12"
             cy="15.61"
             fill="#cccccc"
             r="6.5100002"
             style="fill:#d35f5f" /><ellipse
             id="cr"
             cx="118.64"
             cy="14.77"
             rx="5.0500002"
             ry="4.9200001"
             fill="#e6e6e6"
             style="fill:#d35f5f" /><ellipse
             id="cs"
             cx="117.76"
             cy="13.91"
             rx="3.74"
             ry="3.75"
             fill="#ffffff"
             style="fill:#d35f5f" /><circle
             id="ct"
             cx="119.12"
             cy="15.61"
             fill="none"
             stroke="#1a1a1a"
             stroke-width="0.67"
             style="fill:#d35f5f"
             r="6.5100002" /></g><g
           id="cu"><g
             id="cv"><ellipse
               id="cw"
               cx="119.12"
               cy="48.860001"
               rx="17.68"
               ry="17.690001"
               fill="#f3d328"
               stroke="#1a1a1a"
               stroke-width="0.68" /><ellipse
               id="cx"
               cx="116.01"
               cy="43.669998"
               rx="10.11"
               ry="9.8199997"
               fill="#f7e272" /></g><path
             id="cy"
             d="m 118.4,29.37 c -1.63,0 -2.94,1.31 -2.94,2.94 v 11.74 h -11.79 c -1.63,0 -2.99,1.31 -2.99,2.94 v 1.31 c 0,1.63 1.36,2.94 2.99,2.94 h 30.93 c 1.63,0 2.94,-1.31 2.94,-2.94 v -1.31 c 0,-1.63 -1.31,-2.94 -2.94,-2.94 H 122.81 V 32.31 c 0,-1.63 -1.31,-2.94 -2.94,-2.94 h -1.49 z"
             fill="#f4d30d" /><path
             id="cz"
             d="m 119.22,29.25 -3.37,1.09 -0.3,13.93 -12.26,-0.14 -2.45,2.58 v 0.92 l 17.61,-0.14 0.76,-18.25 z m 3.53,14.55 -0.46,0.79 0.03,3.16 15.14,0.05 v -1.69 l -2.47,-2.15 -12.23,-0.16 z"
             fill="#f7e272" /><path
             id="da"
             d="m 118.4,29.37 c -1.63,0 -2.94,1.31 -2.94,2.94 v 11.74 h -11.79 c -1.63,0 -2.99,1.31 -2.99,2.94 v 1.31 c 0,1.63 1.36,2.94 2.99,2.94 h 30.93 c 1.63,0 2.94,-1.31 2.94,-2.94 v -1.31 c 0,-1.63 -1.31,-2.94 -2.94,-2.94 H 122.81 V 32.31 c 0,-1.63 -1.31,-2.94 -2.94,-2.94 h -1.49 z"
             fill="none"
             stroke="#1a1a1a"
             stroke-width="0.67"
             style="fill:#0066ff" /></g></g><path
         id="ec"
         d="m 97.75,62.67 -6.07,1.68 c 3.79,13.74 11.04,43.73 12.27,68.41 l 6.29,3.89 C 108.98,111.38 101.82,77.43 97.75,62.67 Z m 42.75,0 c -4.07,14.76 -11.23,48.72 -12.49,73.98 l 6.29,-3.89 c 1.23,-24.68 8.48,-54.67 12.27,-68.41 z"
         fill="#f3d328"
         fill-rule="evenodd"
         stroke="#000000"
         stroke-miterlimit="4.2"
         stroke-width="1.17" /><path
         id="ee"
         d="m 43.85,221.59 c 0,0 -9.98,-32.63 -17.14,-48.05 C 23.22,166.03 16,152.07 16,152.07 l 14.67,-8.47 7.55,-1.06 c -3.71,9.9 -3.45,16.82 -3.53,24 7.77,-1.34 11.35,-7.25 15.52,-11.29 l 4.94,20.82 c -7.78,-3.46 -12.97,-1.73 -17.98,0.35 0,0 3.21,6.29 5.64,8.47 2.78,2.5 5.84,3.93 9.52,4.59 3.48,0.62 7.4,0.84 10.58,-0.71 6.7,-3.25 10.11,-10.35 9.17,-9.88 0,0 0.67,-6.23 -1.06,-8.47 -1.29,-1.68 -3.95,-3.04 -5.99,-2.47 -3.22,0.9 -4.94,8.12 -4.94,8.12 0,0 -3.09,-6.14 -3.88,-9.53 -0.69,-2.98 -1.72,-6.44 -0.35,-9.18 1.02,-2.04 3.4,-3.47 5.64,-3.88 2.97,-0.55 8.46,2.12 8.46,2.12 0,0 -1.64,-5.53 -2.12,-8.47 -0.24,-1.51 0.12,-3.53 0.71,-4.94 1.34,-3.23 5.29,-6 4.82,-6.02 -0.47,-0.02 4.04,1.69 6.13,4.49 0.91,1.23 1.76,3.09 1.9,4.62 0.26,2.96 0.03,8.73 0.03,8.73 0,0 4.67,-3.94 7.68,-4.13 2.28,-0.15 4.93,0.65 6.42,2.37 2,2.31 1.85,5.92 1.91,8.98 0.07,3.48 -1.42,10.19 -1.42,10.19 0,0 -3.44,-6.57 -6.78,-6.65 -2.12,-0.05 -4.36,1.92 -5.2,3.87 -1.13,2.6 1.06,8.47 1.06,8.47 13.2,10.31 26.85,-0.26 29.65,-10.57 v -3.88 c -5.52,0.76 -7.88,1.73 -13.4,8.12 l -1.76,-25.76 c 5.29,4.79 9.87,6.51 15.16,5.65 -0.5,-7.49 -4.25,-10.82 -10.35,-17.37 l 5.99,-1.76 h 17.94 l 5.99,1.76 c -6.11,6.55 -10.31,9.88 -10.81,17.37 5.29,0.86 9.87,-0.86 15.16,-5.65 l -1.76,25.76 c -5.52,-6.38 -7.88,-7.36 -13.4,-8.12 v 3.88 c 2.8,10.3 16.45,20.88 29.65,10.57 0,0 2.18,-5.87 1.06,-8.47 -0.84,-1.95 -3.09,-3.92 -5.2,-3.87 -3.34,0.08 -6.78,6.65 -6.78,6.65 0,0 -1.49,-6.72 -1.42,-10.19 0.06,-3.06 -0.09,-6.67 1.91,-8.98 1.49,-1.73 4.15,-2.52 6.42,-2.37 3.02,0.2 7.68,4.13 7.68,4.13 0,0 -0.23,-5.77 0.03,-8.73 0.13,-1.52 0.98,-3.39 1.9,-4.62 2.09,-2.8 6.6,-4.51 6.13,-4.49 -0.47,0.02 3.48,2.79 4.82,6.02 0.58,1.41 0.95,3.43 0.71,4.94 -0.48,2.94 -2.12,8.47 -2.12,8.47 0,0 5.49,-2.67 8.46,-2.12 2.24,0.42 4.62,1.84 5.64,3.88 1.37,2.74 0.34,6.19 -0.35,9.18 -0.79,3.39 -3.88,9.53 -3.88,9.53 0,0 -1.72,-7.22 -4.94,-8.12 -2.04,-0.57 -4.7,0.79 -5.99,2.47 -1.73,2.24 -1.06,8.47 -1.06,8.47 -0.94,-0.47 2.47,6.63 9.17,9.88 3.18,1.55 7.1,1.33 10.58,0.71 3.68,-0.66 6.74,-2.09 9.52,-4.59 2.43,-2.18 5.64,-8.47 5.64,-8.47 -5.01,-2.08 -10.2,-3.81 -17.98,-0.35 l 4.94,-20.82 c 4.17,4.04 7.74,9.95 15.52,11.29 -0.07,-7.17 0.18,-14.1 -3.53,-24 l 6.85,1.26 15.37,8.26 c 0,0 -7.23,13.96 -10.71,21.47 -7.16,15.42 -17.14,48.05 -17.14,48.05 l -0.31,0.88 C 143.01,211.02 93.08,212.35 43.87,221.58 v 0 z"
         fill="#f3d328" /><g
         id="el-7"
         transform="translate(50.966195,7.3654382)"><path
           id="em-0"
           d="m 111.3,183.41 h 15.66 c 2.52,0 4.57,2.05 4.57,4.57 v 5.19 c 0,2.53 -2.05,4.58 -4.58,4.58 h -15.66 c -2.52,0 -4.57,-2.05 -4.57,-4.57 v -5.19 c 0,-2.53 2.05,-4.58 4.58,-4.58 z"
           fill="#1d369e" /><path
           id="en-4"
           d="m 110.15,194.83 -0.12,-6.59 1.76,-1.53 15.4,-0.12 2.12,3.29 -0.12,4.23 h 2.23 l 0.12,-6.94 -2.82,-4 -18.34,0.24 -3.41,2.59 0.12,7.76 1.18,1.41 1.88,-0.35 v 0 z"
           fill="#4163ef" /><path
           id="eo-4"
           d="m 107.45,191.65 4.23,2.82 14.58,0.12 1.88,-1.88 0.12,-4.23 2.47,-3.76 1.29,2.59 -0.59,7.65 -2.35,3.18 -17.98,-0.35 -3.76,-2.47 -0.59,-1.53 0.71,-2.12 v 0 c 0,0 0,0 0,0 z"
           fill="#2545cb" /><path
           id="ep-9"
           d="m 111.3,183.41 h 15.66 c 2.52,0 4.57,2.05 4.57,4.57 v 5.19 c 0,2.53 -2.05,4.58 -4.58,4.58 h -15.66 c -2.52,0 -4.57,-2.05 -4.57,-4.57 v -5.19 c 0,-2.53 2.05,-4.58 4.58,-4.58 z"
           fill="none"
           stroke="#000000"
           stroke-width="0.57" /><path
           id="eq-7"
           d="m 113.06,187.84 h 4.69 c 0.84,0 1.53,0.69 1.53,1.53 v 0.19 c 0,0.84 -0.69,1.53 -1.53,1.53 h -4.69 c -0.84,0 -1.53,-0.69 -1.53,-1.53 v -0.19 c 0,-0.84 0.69,-1.53 1.53,-1.53 z"
           fill="#5674f1" /></g><g
         id="el-9"
         transform="translate(-49.817071,7.875)"><path
           id="em-4"
           d="m 111.3,183.41 h 15.66 c 2.52,0 4.57,2.05 4.57,4.57 v 5.19 c 0,2.53 -2.05,4.58 -4.58,4.58 h -15.66 c -2.52,0 -4.57,-2.05 -4.57,-4.57 v -5.19 c 0,-2.53 2.05,-4.58 4.58,-4.58 z"
           fill="#1d369e" /><path
           id="en-7"
           d="m 110.15,194.83 -0.12,-6.59 1.76,-1.53 15.4,-0.12 2.12,3.29 -0.12,4.23 h 2.23 l 0.12,-6.94 -2.82,-4 -18.34,0.24 -3.41,2.59 0.12,7.76 1.18,1.41 1.88,-0.35 v 0 z"
           fill="#4163ef" /><path
           id="eo-0"
           d="m 107.45,191.65 4.23,2.82 14.58,0.12 1.88,-1.88 0.12,-4.23 2.47,-3.76 1.29,2.59 -0.59,7.65 -2.35,3.18 -17.98,-0.35 -3.76,-2.47 -0.59,-1.53 0.71,-2.12 v 0 c 0,0 0,0 0,0 z"
           fill="#2545cb" /><path
           id="ep-6"
           d="m 111.3,183.41 h 15.66 c 2.52,0 4.57,2.05 4.57,4.57 v 5.19 c 0,2.53 -2.05,4.58 -4.58,4.58 h -15.66 c -2.52,0 -4.57,-2.05 -4.57,-4.57 v -5.19 c 0,-2.53 2.05,-4.58 4.58,-4.58 z"
           fill="none"
           stroke="#000000"
           stroke-width="0.57" /><path
           id="eq-3"
           d="m 113.06,187.84 h 4.69 c 0.84,0 1.53,0.69 1.53,1.53 v 0.19 c 0,0.84 -0.69,1.53 -1.53,1.53 h -4.69 c -0.84,0 -1.53,-0.69 -1.53,-1.53 v -0.19 c 0,-0.84 0.69,-1.53 1.53,-1.53 z"
           fill="#5674f1" /></g><path
         id="ef"
         d="m 58.4,219.1 c -4.86,0.75 -9.71,1.58 -14.55,2.49 0,0 -9.98,-32.63 -17.14,-48.05 C 23.22,166.03 16,152.07 16,152.07 l 14.67,-8.47 7.55,-1.06 c -3.71,9.9 -3.45,16.82 -3.53,24 7.77,-1.34 11.35,-7.25 15.52,-11.29 l 4.94,20.82 c -7.78,-3.46 -12.97,-1.73 -17.98,0.35 0,0 3.21,6.29 5.64,8.47 2.78,2.5 5.84,3.93 9.52,4.59 l 6.09,29.62 v 0 z m 127.52,-29.62 c 3.68,-0.66 6.74,-2.09 9.52,-4.59 2.43,-2.18 5.64,-8.47 5.64,-8.47 -5.01,-2.08 -10.2,-3.81 -17.98,-0.35 l 4.94,-20.82 c 4.17,4.04 7.74,9.95 15.52,11.29 -0.07,-7.17 0.18,-14.1 -3.53,-24 l 6.85,1.26 15.37,8.26 c 0,0 -7.23,13.96 -10.71,21.47 -7.16,15.42 -17.14,48.05 -17.14,48.05 l -0.31,0.88 c -4.98,-1.12 -9.95,-2.11 -14.92,-2.99 l -0.65,-0.67 7.41,-29.33 v 0 z"
         fill="#eac102" /><path
         id="eg"
         d="m 40.12,175.81 -3.43,-9.73 4.29,-1.72 8.58,-8.59 5.44,20.61 -7.72,-2.29 h -4 l -3.15,1.72 v 0 z"
         fill="#eac102" /><path
         id="eh"
         d="m 197.71,175.63 3.43,-9.73 -4.29,-1.72 -8.58,-8.59 -5.44,20.61 7.72,-2.29 h 4 l 3.15,1.72 v 0 z"
         fill="#fcc917" /><path
         id="ei"
         d="m 31.82,142.89 -16.58,9.44 5.18,8.93 14.48,-5.91 3.49,-12.46 h -6.58 z m 167.75,0.1 3.14,12.11 14.83,6.29 5.18,-8.96 -16.58,-9.44 c 0,0 -6.58,0 -6.58,0 z m -11.44,12.46 -4.86,20.88 6.58,-3.15 4,-11.16 -5.72,-6.58 z m -137.7,0.03 -5.75,6.58 4.03,11.16 6.58,3.15 -4.86,-20.88 z"
         fill="#f3d328" /><path
         id="ej"
         d="m 43.85,221.59 c 0,0 -9.98,-32.63 -17.14,-48.05 C 23.22,166.03 16,152.07 16,152.07 l 14.67,-8.47 7.55,-1.06 c -3.71,9.9 -3.45,16.82 -3.53,24 7.77,-1.34 11.35,-7.25 15.52,-11.29 l 4.94,20.82 c -7.78,-3.46 -12.97,-1.73 -17.98,0.35 0,0 3.21,6.29 5.64,8.47 2.78,2.5 5.84,3.93 9.52,4.59 3.48,0.62 7.4,0.84 10.58,-0.71 6.7,-3.25 10.11,-10.35 9.17,-9.88 0,0 0.67,-6.23 -1.06,-8.47 -1.29,-1.68 -3.95,-3.04 -5.99,-2.47 -3.22,0.9 -4.94,8.12 -4.94,8.12 0,0 -3.09,-6.14 -3.88,-9.53 -0.69,-2.98 -1.72,-6.44 -0.35,-9.18 1.02,-2.04 3.4,-3.47 5.64,-3.88 2.97,-0.55 8.46,2.12 8.46,2.12 0,0 -1.64,-5.53 -2.12,-8.47 -0.24,-1.51 0.12,-3.53 0.71,-4.94 1.34,-3.23 3.46,-4.93 4.82,-6.78 1.81,1.81 4.04,2.46 6.13,5.26 0.91,1.23 1.76,3.09 1.9,4.62 0.26,2.96 0.03,8.73 0.03,8.73 0,0 4.67,-3.94 7.68,-4.13 2.28,-0.15 4.93,0.65 6.42,2.37 2,2.31 1.85,5.92 1.91,8.98 0.07,3.48 -1.42,10.19 -1.42,10.19 0,0 -3.44,-6.57 -6.78,-6.65 -2.12,-0.05 -4.36,1.92 -5.2,3.87 -1.13,2.6 1.06,8.47 1.06,8.47 13.2,10.31 26.85,-0.26 29.65,-10.57 v -3.88 c -5.52,0.76 -7.88,1.73 -13.4,8.12 l -1.76,-25.76 c 5.29,4.79 9.87,6.51 15.16,5.65 -0.5,-7.49 -4.47,-10.66 -10.58,-17.21 l 5.99,-1.76 h 17.94 l 5.99,1.76 c -6.11,6.55 -10.08,9.72 -10.58,17.21 5.29,0.86 9.87,-0.86 15.16,-5.65 l -1.76,25.76 c -5.52,-6.38 -7.88,-7.36 -13.4,-8.12 v 3.88 c 2.8,10.3 16.45,20.88 29.65,10.57 0,0 2.18,-5.87 1.06,-8.47 -0.84,-1.95 -3.09,-3.92 -5.2,-3.87 -3.34,0.08 -6.78,6.65 -6.78,6.65 0,0 -1.49,-6.72 -1.42,-10.19 0.06,-3.06 -0.09,-6.67 1.91,-8.98 1.49,-1.73 4.15,-2.52 6.42,-2.37 3.02,0.2 7.68,4.13 7.68,4.13 0,0 -0.23,-5.77 0.03,-8.73 0.13,-1.52 0.98,-3.39 1.9,-4.62 2.09,-2.8 3.41,-4.06 5.52,-6.17 1.57,1.97 4.09,4.47 5.43,7.69 0.58,1.41 0.95,3.43 0.71,4.94 -0.48,2.94 -2.12,8.47 -2.12,8.47 0,0 5.49,-2.67 8.46,-2.12 2.24,0.42 4.62,1.84 5.64,3.88 1.37,2.74 0.34,6.19 -0.35,9.18 -0.79,3.39 -3.88,9.53 -3.88,9.53 0,0 -1.72,-7.22 -4.94,-8.12 -2.04,-0.57 -4.7,0.79 -5.99,2.47 -1.73,2.24 -1.06,8.47 -1.06,8.47 -0.94,-0.47 2.47,6.63 9.17,9.88 3.18,1.55 7.1,1.33 10.58,0.71 3.68,-0.66 6.74,-2.09 9.52,-4.59 2.43,-2.18 5.64,-8.47 5.64,-8.47 -5.01,-2.08 -10.2,-3.81 -17.98,-0.35 l 4.94,-20.82 c 4.17,4.04 7.74,9.95 15.52,11.29 -0.07,-7.17 0.18,-14.1 -3.53,-24 l 6.85,1.26 15.37,8.26 c 0,0 -3.04,5.86 -6.12,12.04 -1.68,3.35 -3.37,6.79 -4.59,9.43 -7.16,15.42 -17.14,48.05 -17.14,48.05 l -0.31,0.88 C 143.01,211.02 93.08,212.35 43.87,221.58 v 0 z"
         fill="none"
         stroke="#000000"
         stroke-width="0.57" /><g
         id="el"><path
           id="em"
           d="m 111.3,183.41 h 15.66 c 2.52,0 4.57,2.05 4.57,4.57 v 5.19 c 0,2.53 -2.05,4.58 -4.58,4.58 h -15.66 c -2.52,0 -4.57,-2.05 -4.57,-4.57 v -5.19 c 0,-2.53 2.05,-4.58 4.58,-4.58 z"
           fill="#1d369e" /><path
           id="en"
           d="m 110.15,194.83 -0.12,-6.59 1.76,-1.53 15.4,-0.12 2.12,3.29 -0.12,4.23 h 2.23 l 0.12,-6.94 -2.82,-4 -18.34,0.24 -3.41,2.59 0.12,7.76 1.18,1.41 1.88,-0.35 v 0 z"
           fill="#4163ef" /><path
           id="eo"
           d="m 107.45,191.65 4.23,2.82 14.58,0.12 1.88,-1.88 0.12,-4.23 2.47,-3.76 1.29,2.59 -0.59,7.65 -2.35,3.18 -17.98,-0.35 -3.76,-2.47 -0.59,-1.53 0.71,-2.12 v 0 c 0,0 0,0 0,0 z"
           fill="#2545cb" /><path
           id="ep"
           d="m 111.3,183.41 h 15.66 c 2.52,0 4.57,2.05 4.57,4.57 v 5.19 c 0,2.53 -2.05,4.58 -4.58,4.58 h -15.66 c -2.52,0 -4.57,-2.05 -4.57,-4.57 v -5.19 c 0,-2.53 2.05,-4.58 4.58,-4.58 z"
           fill="none"
           stroke="#000000"
           stroke-width="0.57" /><path
           id="eq"
           d="m 113.06,187.84 h 4.69 c 0.84,0 1.53,0.69 1.53,1.53 v 0.19 c 0,0.84 -0.69,1.53 -1.53,1.53 h -4.69 c -0.84,0 -1.53,-0.69 -1.53,-1.53 v -0.19 c 0,-0.84 0.69,-1.53 1.53,-1.53 z"
           fill="#5674f1" /></g><circle
         id="ft"
         cx="119.12"
         cy="156.42999"
         fill="#cccccc"
         r="7.6100001" /><ellipse
         id="fu"
         cx="118.56"
         cy="155.45"
         rx="5.9000001"
         ry="5.75"
         fill="#e6e6e6"
         style="fill:#66ff00" /><ellipse
         id="fv"
         cx="117.53"
         cy="153.22046"
         rx="3.3161008"
         ry="2.8091514"
         fill="#ffffff"
         style="stroke-width:0.696833" /><circle
         id="fw"
         cx="119.12"
         cy="156.42999"
         fill="none"
         stroke="#000000"
         stroke-width="0.57"
         r="7.6100001" /><g
         id="fy"><circle
           id="fz"
           cx="206.63"
           cy="172.82001"
           fill="#cccccc"
           r="7.6100001" /><ellipse
           id="ga"
           cx="206.07001"
           cy="171.85001"
           rx="5.9000001"
           ry="5.75"
           fill="#e6e6e6"
           style="fill:#71c837" /><ellipse
           id="gb"
           cx="205.90942"
           cy="168.72855"
           rx="2.7553585"
           ry="2.2785459"
           fill="#ffffff"
           style="stroke-width:0.572065" /><circle
           id="gc"
           cx="206.63"
           cy="172.82001"
           fill="none"
           stroke="#000000"
           stroke-width="0.57"
           r="7.6100001" /></g><g
         id="gd"><circle
           id="ge"
           cx="31.610001"
           cy="172.82001"
           fill="#cccccc"
           r="7.6100001" /><ellipse
           id="gf"
           cx="31.049999"
           cy="171.85001"
           rx="5.9000001"
           ry="5.75"
           fill="#e6e6e6"
           style="fill:#66ff00" /><ellipse
           id="gg"
           cx="30.546951"
           cy="169.96175"
           rx="3.6674006"
           ry="2.6335015"
           fill="#ffffff"
           style="stroke-width:0.709534" /><circle
           id="gh"
           cx="31.610001"
           cy="172.82001"
           fill="none"
           stroke="#000000"
           stroke-width="0.57"
           r="7.6100001" /></g><g
         id="gl"><g
           id="gm"><path
             id="gn"
             d="m 45.89,240.89417 c 50.63,-12.48766 99.4,-11.28605 147.18,0.0561 8.23,3.04332 10.09,-18.06893 2.05,-22.56088 -49.82,-16.60905 -138.25,-7.07485 -152.18,0 -4.19,-0.84226 -9.96,21.92078 2.95,22.50474 z"
             fill="#ffffff"
             style="stroke-width:1.05971" /><path
             id="go"
             d="m 45.89,238.11707 c 50.63,-11.54342 99.4,-10.43267 147.18,0.0518 2.73,0.93427 5.56,-4.88934 6.76,-7.49492 -68.42,-17.68884 -109.11,-12.95521 -161.93,0 -0.47,-1.89969 -0.73,1.16265 1.48,3.84087 1.52,1.83741 5.34,3.32186 6.5,3.60214 v 0 z"
             fill="#e6e6e6"
             style="stroke-width:1.01886" /><path
             id="gp"
             d="m 45.886581,236.72948 c 50.632364,-10.84953 99.404649,-9.80556 147.186869,0.0488 8.23039,2.64408 10.09048,-15.69868 2.0501,-19.6014 -49.82232,-14.43027 -138.256457,-6.14677 -152.187106,0 -4.190195,-0.73175 -9.960465,19.04526 2.950137,19.5526 z"
             fill="none"
             stroke="#000000"
             stroke-width="0.582795"
             style="display:none" /></g><g
           id="gq"
           transform="matrix(1,0,0,0.90349935,0,20.733011)"><path
             id="gr"
             d="m 112.84,214.85 c -2.23,0.11 -4.79,0.84 -4.79,0.84 l 6.37,1.61 c 0,0 -1.85,0.43 -3.25,0.93 -1,0.35 -3.74,1.83 -3.74,1.83 l 7.3,0.06 c 0,0 -2.12,1.02 -2.97,1.79 -0.65,0.59 -1.55,2.14 -1.55,2.14 0,0 6.48,-2.66 9.89,-3.31 3.51,-0.67 10.7,-0.59 10.7,-0.59 l -4.02,-2.01 c 0,0 -3.85,-0.6 -7.11,-1.61 -1.86,-0.57 -4.04,-1.59 -5.91,-1.67 -0.3,-0.01 -0.61,-0.02 -0.93,0 z m -29.34,1.39 c -0.24,0 -0.48,0.01 -0.71,0.03 -2.36,0.2 -5.6,1.55 -5.6,1.55 l 6.56,0.77 c 0,0 -1.8,0.69 -3.12,1.36 -0.95,0.48 -3.46,2.29 -3.46,2.29 l 7.24,-0.87 c 0,0 -1.98,1.25 -2.72,2.14 -0.56,0.67 -1.24,2.32 -1.24,2.32 0,0 6.07,-3.46 9.37,-4.55 3.4,-1.12 10.54,-1.98 10.54,-1.98 l -4.24,-1.49 c 0,0 -3.9,-0.07 -7.27,-0.65 -1.68,-0.29 -3.64,-0.89 -5.35,-0.93 v 0 z m 59.99,0.28 c -2.23,-0.03 -4.85,0.56 -4.85,0.56 l 6.28,1.98 c 0,0 -1.88,0.33 -3.31,0.74 -1.02,0.29 -3.83,1.61 -3.83,1.61 l 7.27,0.5 c 0,0 -2.17,0.85 -3.06,1.58 -0.68,0.55 -1.67,2.04 -1.67,2.04 0,0 6.63,-2.25 10.08,-2.69 3.55,-0.46 10.73,0.06 10.73,0.06 l -3.9,-2.26 c 0,0 -3.82,-0.84 -7.02,-2.04 -1.83,-0.69 -3.93,-1.82 -5.78,-2.01 -0.29,-0.03 -0.61,-0.06 -0.93,-0.06 z m -89.52,3 c -0.51,0 -1,0.03 -1.45,0.12 -2.32,0.47 -5.38,2.2 -5.38,2.2 h 6.59 c 0,0 -1.7,0.88 -2.94,1.7 -0.88,0.59 -3.15,2.69 -3.15,2.69 l 7.08,-1.7 c 0,0 -1.81,1.48 -2.44,2.44 -0.48,0.73 -0.99,2.44 -0.99,2.44 0,0 5.63,-4.17 8.78,-5.63 3.24,-1.51 10.27,-3.16 10.27,-3.16 l -4.42,-0.99 c 0,0 -3.86,0.37 -7.27,0.19 -1.46,-0.08 -3.15,-0.34 -4.67,-0.31 z m 117.44,0.59 c -1.16,0.03 -2.04,0.12 -2.04,0.12 l 6.06,2.63 c 0,0 -1.91,0.14 -3.37,0.4 -1.04,0.18 -3.99,1.18 -3.99,1.18 l 7.17,1.27 c 0,0 -2.25,0.64 -3.22,1.27 -0.73,0.48 -1.86,1.86 -1.86,1.86 0,0 6.82,-1.59 10.3,-1.67 3.57,-0.09 10.67,1.18 10.67,1.18 l -3.65,-2.63 c 0,0 -3.72,-1.23 -6.77,-2.75 -1.75,-0.87 -3.71,-2.21 -5.53,-2.6 -1.16,-0.25 -2.61,-0.28 -3.77,-0.25 z"
             fill="#333333" /></g></g><ellipse
         id="gg-89"
         cx="12.990794"
         cy="113.71149"
         rx="3.6674006"
         ry="2.6335015"
         fill="#ffffff"
         style="stroke-width:0.709534" /><ellipse
         id="gg-2"
         cx="23.234297"
         cy="97.657585"
         rx="3.6674006"
         ry="2.6335015"
         fill="#ffffff"
         style="stroke-width:0.709534" /><ellipse
         id="gg-5"
         cx="34.908989"
         cy="80.982895"
         rx="3.6674006"
         ry="2.6335015"
         fill="#ffffff"
         style="stroke-width:0.709534" /><ellipse
         id="gg-3"
         cx="49.501877"
         cy="68.036789"
         rx="3.6674006"
         ry="2.6335015"
         fill="#ffffff"
         style="stroke-width:0.709534" /><ellipse
         id="gg-0"
         cx="66.825272"
         cy="58.118599"
         rx="3.6674006"
         ry="2.6335015"
         fill="#ffffff"
         style="stroke-width:0.709534" /><ellipse
         id="gg-1"
         cx="83.711739"
         cy="50.443905"
         rx="3.6674006"
         ry="2.6335015"
         fill="#ffffff"
         style="stroke-width:0.709534" /><ellipse
         id="gg-16"
         cx="153.70488"
         cy="50.139629"
         rx="3.6674006"
         ry="2.6335015"
         fill="#ffffff"
         style="stroke-width:0.709534" /><ellipse
         id="gg-6"
         cx="172.97055"
         cy="58.793289"
         rx="3.6674006"
         ry="2.6335015"
         fill="#ffffff"
         style="stroke-width:0.709534" /><ellipse
         id="gg-34"
         cx="189.75113"
         cy="69.280296"
         rx="3.6674006"
         ry="2.6335015"
         fill="#ffffff"
         style="stroke-width:0.709534" /><ellipse
         id="gg-4"
         cx="204.45181"
         cy="82.41217"
         rx="3.6674006"
         ry="2.6335015"
         fill="#ffffff"
         style="stroke-width:0.709534" /><ellipse
         id="gg-4-2"
         cx="217.6674"
         cy="98.168671"
         rx="3.6674006"
         ry="2.6335015"
         fill="#ffffff"
         style="stroke-width:0.709534" /><ellipse
         id="gg-4-21"
         cx="225.909"
         cy="115.32845"
         rx="3.6674006"
         ry="2.6335015"
         fill="#ffffff"
         style="stroke-width:0.709534" /><ellipse
         id="gg-4-9"
         cx="231.96289"
         cy="133.46033"
         rx="3.6674006"
         ry="2.6335015"
         fill="#ffffff"
         style="stroke-width:0.709534" /></g></g></svg>
