<svg width="120" height="120" viewBox="0 0 120 120" xmlns="http://www.w3.org/2000/svg">
  <defs>
    <!-- Top surface gradient -->
    <radialGradient id="redTop" cx="40%" cy="30%">
      <stop offset="0%" style="stop-color:#ff6b6b;stop-opacity:1" />
      <stop offset="60%" style="stop-color:#ef4444;stop-opacity:1" />
      <stop offset="100%" style="stop-color:#dc2626;stop-opacity:1" />
    </radialGradient>
    
    <!-- Recessed center gradient (darker) -->
    <radialGradient id="redRecess" cx="50%" cy="50%">
      <stop offset="0%" style="stop-color:#b91c1c;stop-opacity:1" />
      <stop offset="100%" style="stop-color:#991b1b;stop-opacity:1" />
    </radialGradient>
    
    <!-- Side surface gradient (darker) -->
    <linearGradient id="redSide" x1="0%" y1="0%" x2="0%" y2="100%">
      <stop offset="0%" style="stop-color:#dc2626;stop-opacity:1" />
      <stop offset="50%" style="stop-color:#991b1b;stop-opacity:1" />
      <stop offset="100%" style="stop-color:#7f1d1d;stop-opacity:1" />
    </linearGradient>
    
    <!-- Bottom shadow -->
    <radialGradient id="bottomShadow" cx="50%" cy="50%">
      <stop offset="0%" style="stop-color:#000000;stop-opacity:0.5" />
      <stop offset="100%" style="stop-color:#000000;stop-opacity:0" />
    </radialGradient>
  </defs>
  
  <!-- Drop shadow -->
  <ellipse cx="60" cy="105" rx="45" ry="10" fill="url(#bottomShadow)"/>
  
  <!-- Bottom ellipse (base) -->
  <ellipse cx="60" cy="85" rx="48" ry="16" fill="#7f1d1d" stroke="#5f1010" stroke-width="2"/>
  
  <!-- Side cylinder base -->
  <path d="M 12 85 L 12 45 Q 12 35, 60 30 Q 108 35, 108 45 L 108 85 Q 108 95, 60 100 Q 12 95, 12 85 Z" 
        fill="url(#redSide)" stroke="#7f1d1d" stroke-width="2"/>
  
  <!-- Top ellipse (top surface / border) -->
  <ellipse cx="60" cy="45" rx="48" ry="16" fill="url(#redTop)" stroke="#dc2626" stroke-width="2"/>
  
  <!-- Inner Wall (Back side visible) -->
  <!-- Connects top inner edge (y=45) to floor inner edge (y=48) -->
  <!-- Top inner edge: rx=36, ry=12, cy=45 -->
  <!-- Floor inner edge: rx=36, ry=12, cy=48 -->
  <path d="M 24 45 A 36 12 0 0 1 96 45 L 96 48 A 36 12 0 0 0 24 48 Z" fill="#7f1d1d"/>
  
  <!-- Recessed inner face (Floor) -->
  <!-- Shifted down by 3px to y=48 to create depth -->
  <ellipse cx="60" cy="48" rx="36" ry="12" fill="url(#redRecess)" stroke="#7f1d1d" stroke-width="1"/>
  
  <!-- Vertical ridges - Precise calculation using ellipse equation -->
  <!-- y = 45 + 16 * sqrt(1 - ((x-60)/48)^2) -->
  
  <!-- Ridge 1 (x=16): y=51.40 -->
  <line x1="16" y1="51.4" x2="16" y2="91.4" stroke="#2f0505" stroke-width="2" opacity="0.9"/>
  <line x1="17.5" y1="51.4" x2="17.5" y2="91.4" stroke="#ffffff" stroke-width="1.5" opacity="0.5"/>
  <ellipse cx="16.75" cy="51.4" rx="1.5" ry="0.8" fill="#2f0505" opacity="0.7"/>
  
  <!-- Ridge 2 (x=21): y=54.33 -->
  <line x1="21" y1="54.33" x2="21" y2="94.33" stroke="#2f0505" stroke-width="2" opacity="0.9"/>
  <line x1="22.5" y1="54.33" x2="22.5" y2="94.33" stroke="#ffffff" stroke-width="1.5" opacity="0.5"/>
  <ellipse cx="21.75" cy="54.33" rx="1.5" ry="0.8" fill="#2f0505" opacity="0.7"/>
  
  <!-- Ridge 3 (x=26): y=56.29 -->
  <line x1="26" y1="56.29" x2="26" y2="96.29" stroke="#2f0505" stroke-width="2" opacity="0.9"/>
  <line x1="27.5" y1="56.29" x2="27.5" y2="96.29" stroke="#ffffff" stroke-width="1.5" opacity="0.5"/>
  <ellipse cx="26.75" cy="56.29" rx="1.5" ry="0.8" fill="#2f0505" opacity="0.7"/>
  
  <!-- Ridge 4 (x=31): y=57.75 -->
  <line x1="31" y1="57.75" x2="31" y2="97.75" stroke="#2f0505" stroke-width="2" opacity="0.9"/>
  <line x1="32.5" y1="57.75" x2="32.5" y2="97.75" stroke="#ffffff" stroke-width="1.5" opacity="0.5"/>
  <ellipse cx="31.75" cy="57.75" rx="1.5" ry="0.8" fill="#2f0505" opacity="0.7"/>
  
  <!-- Ridge 5 (x=36): y=58.86 -->
  <line x1="36" y1="58.86" x2="36" y2="98.86" stroke="#2f0505" stroke-width="2" opacity="0.9"/>
  <line x1="37.5" y1="58.86" x2="37.5" y2="98.86" stroke="#ffffff" stroke-width="1.5" opacity="0.5"/>
  <ellipse cx="36.75" cy="58.86" rx="1.5" ry="0.8" fill="#2f0505" opacity="0.7"/>
  
  <!-- Ridge 6 (x=41): y=59.69 -->
  <line x1="41" y1="59.69" x2="41" y2="99.69" stroke="#2f0505" stroke-width="2" opacity="0.9"/>
  <line x1="42.5" y1="59.69" x2="42.5" y2="99.69" stroke="#ffffff" stroke-width="1.5" opacity="0.5"/>
  <ellipse cx="41.75" cy="59.69" rx="1.5" ry="0.8" fill="#2f0505" opacity="0.7"/>
  
  <!-- Ridge 7 (x=46): y=60.30 -->
  <line x1="46" y1="60.30" x2="46" y2="100.30" stroke="#2f0505" stroke-width="2" opacity="0.9"/>
  <line x1="47.5" y1="60.30" x2="47.5" y2="100.30" stroke="#ffffff" stroke-width="1.5" opacity="0.5"/>
  <ellipse cx="46.75" cy="60.30" rx="1.5" ry="0.8" fill="#2f0505" opacity="0.7"/>
  
  <!-- Ridge 8 (x=51): y=60.72 -->
  <line x1="51" y1="60.72" x2="51" y2="100.72" stroke="#2f0505" stroke-width="2" opacity="0.9"/>
  <line x1="52.5" y1="60.72" x2="52.5" y2="100.72" stroke="#ffffff" stroke-width="1.5" opacity="0.5"/>
  <ellipse cx="51.75" cy="60.72" rx="1.5" ry="0.8" fill="#2f0505" opacity="0.7"/>
  
  <!-- Ridge 9 (x=56): y=60.94 -->
  <line x1="56" y1="60.94" x2="56" y2="100.94" stroke="#2f0505" stroke-width="2" opacity="0.9"/>
  <line x1="57.5" y1="60.94" x2="57.5" y2="100.94" stroke="#ffffff" stroke-width="1.5" opacity="0.5"/>
  <ellipse cx="56.75" cy="60.94" rx="1.5" ry="0.8" fill="#2f0505" opacity="0.7"/>
  
  <!-- Ridge 10 (x=60, center): y=61.00 -->
  <line x1="60" y1="61.00" x2="60" y2="101.00" stroke="#2f0505" stroke-width="2" opacity="0.9"/>
  <line x1="61.5" y1="61.00" x2="61.5" y2="101.00" stroke="#ffffff" stroke-width="1.5" opacity="0.5"/>
  <ellipse cx="60.75" cy="61.00" rx="1.5" ry="0.8" fill="#2f0505" opacity="0.7"/>
  
  <!-- Ridge 11 (x=64): y=60.94 -->
  <line x1="64" y1="60.94" x2="64" y2="100.94" stroke="#2f0505" stroke-width="2" opacity="0.9"/>
  <line x1="65.5" y1="60.94" x2="65.5" y2="100.94" stroke="#ffffff" stroke-width="1.5" opacity="0.5"/>
  <ellipse cx="64.75" cy="60.94" rx="1.5" ry="0.8" fill="#2f0505" opacity="0.7"/>
  
  <!-- Ridge 12 (x=69): y=60.72 -->
  <line x1="69" y1="60.72" x2="69" y2="100.72" stroke="#2f0505" stroke-width="2" opacity="0.9"/>
  <line x1="70.5" y1="60.72" x2="70.5" y2="100.72" stroke="#ffffff" stroke-width="1.5" opacity="0.5"/>
  <ellipse cx="69.75" cy="60.72" rx="1.5" ry="0.8" fill="#2f0505" opacity="0.7"/>
  
  <!-- Ridge 13 (x=74): y=60.30 -->
  <line x1="74" y1="60.30" x2="74" y2="100.30" stroke="#2f0505" stroke-width="2" opacity="0.9"/>
  <line x1="75.5" y1="60.30" x2="75.5" y2="100.30" stroke="#ffffff" stroke-width="1.5" opacity="0.5"/>
  <ellipse cx="74.75" cy="60.30" rx="1.5" ry="0.8" fill="#2f0505" opacity="0.7"/>
  
  <!-- Ridge 14 (x=79): y=59.69 -->
  <line x1="79" y1="59.69" x2="79" y2="99.69" stroke="#2f0505" stroke-width="2" opacity="0.9"/>
  <line x1="80.5" y1="59.69" x2="80.5" y2="99.69" stroke="#ffffff" stroke-width="1.5" opacity="0.5"/>
  <ellipse cx="79.75" cy="59.69" rx="1.5" ry="0.8" fill="#2f0505" opacity="0.7"/>
  
  <!-- Ridge 15 (x=84): y=58.86 -->
  <line x1="84" y1="58.86" x2="84" y2="98.86" stroke="#2f0505" stroke-width="2" opacity="0.9"/>
  <line x1="85.5" y1="58.86" x2="85.5" y2="98.86" stroke="#ffffff" stroke-width="1.5" opacity="0.5"/>
  <ellipse cx="84.75" cy="58.86" rx="1.5" ry="0.8" fill="#2f0505" opacity="0.7"/>
  
  <!-- Ridge 16 (x=89): y=57.75 -->
  <line x1="89" y1="57.75" x2="89" y2="97.75" stroke="#2f0505" stroke-width="2" opacity="0.9"/>
  <line x1="90.5" y1="57.75" x2="90.5" y2="97.75" stroke="#ffffff" stroke-width="1.5" opacity="0.5"/>
  <ellipse cx="89.75" cy="57.75" rx="1.5" ry="0.8" fill="#2f0505" opacity="0.7"/>
  
  <!-- Ridge 17 (x=94): y=56.29 -->
  <line x1="94" y1="56.29" x2="94" y2="96.29" stroke="#2f0505" stroke-width="2" opacity="0.9"/>
  <line x1="95.5" y1="56.29" x2="95.5" y2="96.29" stroke="#ffffff" stroke-width="1.5" opacity="0.5"/>
  <ellipse cx="94.75" cy="56.29" rx="1.5" ry="0.8" fill="#2f0505" opacity="0.7"/>
  
  <!-- Ridge 18 (x=99): y=54.33 -->
  <line x1="99" y1="54.33" x2="99" y2="94.33" stroke="#2f0505" stroke-width="2" opacity="0.9"/>
  <line x1="100.5" y1="54.33" x2="100.5" y2="94.33" stroke="#ffffff" stroke-width="1.5" opacity="0.5"/>
  <ellipse cx="99.75" cy="54.33" rx="1.5" ry="0.8" fill="#2f0505" opacity="0.7"/>
  
  <!-- Ridge 19 (x=104): y=51.40 -->
  <line x1="104" y1="51.40" x2="104" y2="91.40" stroke="#2f0505" stroke-width="2" opacity="0.9"/>
  <line x1="105.5" y1="51.40" x2="105.5" y2="91.40" stroke="#ffffff" stroke-width="1.5" opacity="0.5"/>
  <ellipse cx="104.75" cy="51.40" rx="1.5" ry="0.8" fill="#2f0505" opacity="0.7"/>
</svg>
