<?xml version="1.0" encoding="UTF-8" standalone="no"?>
<svg
   id="a"
   width="101.93871"
   height="165.0527"
   viewBox="0 0 101.9387 165.05271"
   version="1.1"
   sodipodi:docname="King's_Crown_Red.svg"
   inkscape:version="1.3.2 (091e20e, 2023-11-25, custom)"
   xml:space="preserve"
   inkscape:export-filename="Black_King'.svg"
   inkscape:export-xdpi="96"
   inkscape:export-ydpi="96"
   xmlns:inkscape="http://www.inkscape.org/namespaces/inkscape"
   xmlns:sodipodi="http://sodipodi.sourceforge.net/DTD/sodipodi-0.dtd"
   xmlns="http://www.w3.org/2000/svg"
   xmlns:svg="http://www.w3.org/2000/svg"><defs
     id="defs1"><radialGradient
       id="blackTop"
       cx="29.568558"
       cy="64.854027"
       gradientTransform="scale(1.6977494,0.58901509)"
       fx="29.568558"
       fy="64.854027"
       r="28.861738"
       gradientUnits="userSpaceOnUse"><stop
         offset="0%"
         style="stop-color:#6b7280;stop-opacity:1"
         id="stop1" /><stop
         offset="60%"
         style="stop-color:#4b5563;stop-opacity:1"
         id="stop2" /><stop
         offset="100%"
         style="stop-color:#374151;stop-opacity:1"
         id="stop3" /></radialGradient><radialGradient
       id="blackRecess"
       cx="35.112343"
       cy="76.896034"
       gradientTransform="matrix(1.7088007,0,0,0.58520574,-9.4340224,75.436686)"
       fx="35.112343"
       fy="76.896034"
       r="21.360008"
       gradientUnits="userSpaceOnUse"><stop
         offset="0%"
         style="stop-color:#374151;stop-opacity:1"
         id="stop4" /><stop
         offset="100%"
         style="stop-color:#1f2937;stop-opacity:1"
         id="stop5" /></radialGradient><linearGradient
       id="blackSide"
       x1="9.4292803"
       y1="33.824478"
       x2="9.4292803"
       y2="117.83079"
       gradientTransform="matrix(1.166579,0,0,0.85720727,-10.136622,75.612335)"
       gradientUnits="userSpaceOnUse"><stop
         offset="0%"
         style="stop-color:#374151;stop-opacity:1"
         id="stop6" /><stop
         offset="50%"
         style="stop-color:#1f2937;stop-opacity:1"
         id="stop7" /><stop
         offset="100%"
         style="stop-color:#111827;stop-opacity:1"
         id="stop8" /></linearGradient><radialGradient
       id="bottomShadow"
       cx="28.284271"
       cy="222.73865"
       gradientTransform="matrix(2.3283256,0,0,1.2000632,-13.005569,-139.73434)"
       fx="28.284271"
       fy="222.73865"
       r="21.213203"
       gradientUnits="userSpaceOnUse"><stop
         offset="0%"
         style="stop-color:#000000;stop-opacity:0.5"
         id="stop9" /><stop
         offset="100%"
         style="stop-color:#000000;stop-opacity:0"
         id="stop10" /></radialGradient></defs><sodipodi:namedview
     id="namedview1"
     pagecolor="#ffffff"
     bordercolor="#000000"
     borderopacity="0.25"
     inkscape:showpageshadow="2"
     inkscape:pageopacity="0.0"
     inkscape:pagecheckerboard="0"
     inkscape:deskcolor="#d1d1d1"
     inkscape:zoom="5.6931453"
     inkscape:cx="48.128053"
     inkscape:cy="114.34804"
     inkscape:window-width="1280"
     inkscape:window-height="698"
     inkscape:window-x="-6"
     inkscape:window-y="-6"
     inkscape:window-maximized="1"
     inkscape:current-layer="a" /><ellipse
     cx="52.849422"
     cy="127.56608"
     rx="49.391247"
     ry="25.457186"
     fill="url(#bottomShadow)"
     id="ellipse10"
     style="fill:url(#bottomShadow);stroke-width:1.67158" /><ellipse
     cx="50.917278"
     cy="161.13928"
     rx="48"
     ry="16"
     fill="#111827"
     stroke="#030712"
     stroke-width="2"
     id="ellipse11" /><path
     d="m 1.8633784,160.61233 v -39.99999 q 0,-10 48.0000006,-15 48.000004,5 48.000004,15 v 39.99999 q 0,10 -48.000004,15 -48.0000006,-5 -48.0000006,-15 z"
     fill="url(#blackSide)"
     stroke="#111827"
     stroke-width="2"
     id="path11"
     style="fill:url(#blackSide)" /><ellipse
     cx="50.917278"
     cy="121.13929"
     rx="48"
     ry="16"
     fill="url(#blackTop)"
     stroke="#4b5563"
     stroke-width="2"
     id="ellipse12"
     style="fill:#d35f5f" /><line
     x1="6.9172773"
     y1="127.53929"
     x2="6.9172773"
     y2="167.53929"
     stroke="#000000"
     stroke-width="2"
     opacity="0.9"
     id="line13" /><line
     x1="8.4172773"
     y1="127.53929"
     x2="8.4172773"
     y2="167.53929"
     stroke="#ffffff"
     stroke-width="1.5"
     opacity="0.5"
     id="line14" /><ellipse
     cx="7.6672773"
     cy="127.53929"
     rx="1.5"
     ry="0.80000001"
     fill="#000000"
     opacity="0.7"
     id="ellipse14" /><line
     x1="11.917277"
     y1="130.4693"
     x2="11.917277"
     y2="170.46928"
     stroke="#000000"
     stroke-width="2"
     opacity="0.9"
     id="line15" /><line
     x1="13.417277"
     y1="130.4693"
     x2="13.417277"
     y2="170.46928"
     stroke="#ffffff"
     stroke-width="1.5"
     opacity="0.5"
     id="line16" /><ellipse
     cx="12.667277"
     cy="130.4693"
     rx="1.5"
     ry="0.80000001"
     fill="#000000"
     opacity="0.7"
     id="ellipse16" /><line
     x1="16.917276"
     y1="132.42928"
     x2="16.917276"
     y2="172.42929"
     stroke="#000000"
     stroke-width="2"
     opacity="0.9"
     id="line17" /><ellipse
     cx="50.565979"
     cy="120.43669"
     rx="36"
     ry="12"
     fill="url(#blackRecess)"
     stroke="#1f2937"
     stroke-width="1"
     id="ellipse13"
     style="fill:url(#blackRecess)" /><line
     x1="18.417276"
     y1="132.42928"
     x2="18.417276"
     y2="172.42929"
     stroke="#ffffff"
     stroke-width="1.5"
     opacity="0.5"
     id="line18" /><ellipse
     cx="17.667276"
     cy="132.42928"
     rx="1.5"
     ry="0.80000001"
     fill="#000000"
     opacity="0.7"
     id="ellipse18" /><line
     x1="21.917276"
     y1="133.88928"
     x2="21.917276"
     y2="173.88928"
     stroke="#000000"
     stroke-width="2"
     opacity="0.9"
     id="line19" /><line
     x1="23.417276"
     y1="133.88928"
     x2="23.417276"
     y2="173.88928"
     stroke="#ffffff"
     stroke-width="1.5"
     opacity="0.5"
     id="line20" /><ellipse
     cx="22.667276"
     cy="133.88928"
     rx="1.5"
     ry="0.80000001"
     fill="#000000"
     opacity="0.7"
     id="ellipse20" /><line
     x1="26.917276"
     y1="134.99928"
     x2="26.917276"
     y2="174.99928"
     stroke="#000000"
     stroke-width="2"
     opacity="0.9"
     id="line21" /><line
     x1="28.417276"
     y1="134.99928"
     x2="28.417276"
     y2="174.99928"
     stroke="#ffffff"
     stroke-width="1.5"
     opacity="0.5"
     id="line22" /><ellipse
     cx="27.667276"
     cy="134.99928"
     rx="1.5"
     ry="0.80000001"
     fill="#000000"
     opacity="0.7"
     id="ellipse22" /><line
     x1="31.917276"
     y1="135.82928"
     x2="31.917276"
     y2="175.82928"
     stroke="#000000"
     stroke-width="2"
     opacity="0.9"
     id="line23" /><line
     x1="33.417278"
     y1="135.82928"
     x2="33.417278"
     y2="175.82928"
     stroke="#ffffff"
     stroke-width="1.5"
     opacity="0.5"
     id="line24" /><ellipse
     cx="32.667278"
     cy="135.82928"
     rx="1.5"
     ry="0.80000001"
     fill="#000000"
     opacity="0.7"
     id="ellipse24" /><line
     x1="36.917278"
     y1="136.43929"
     x2="36.917278"
     y2="176.43929"
     stroke="#000000"
     stroke-width="2"
     opacity="0.9"
     id="line25" /><ellipse
     cx="95.667274"
     cy="127.53929"
     rx="1.5"
     ry="0.80000001"
     fill="#000000"
     opacity="0.7"
     id="ellipse50" /><line
     x1="38.417278"
     y1="136.43929"
     x2="38.417278"
     y2="176.43929"
     stroke="#ffffff"
     stroke-width="1.5"
     opacity="0.5"
     id="line26" /><ellipse
     cx="37.667278"
     cy="136.43929"
     rx="1.5"
     ry="0.80000001"
     fill="#000000"
     opacity="0.7"
     id="ellipse26" /><line
     x1="41.917278"
     y1="136.85928"
     x2="41.917278"
     y2="176.85928"
     stroke="#000000"
     stroke-width="2"
     opacity="0.9"
     id="line27" /><line
     x1="43.417278"
     y1="136.85928"
     x2="43.417278"
     y2="176.85928"
     stroke="#ffffff"
     stroke-width="1.5"
     opacity="0.5"
     id="line28" /><ellipse
     cx="42.667278"
     cy="136.85928"
     rx="1.5"
     ry="0.80000001"
     fill="#000000"
     opacity="0.7"
     id="ellipse28" /><line
     x1="46.917278"
     y1="137.07928"
     x2="46.917278"
     y2="177.07928"
     stroke="#000000"
     stroke-width="2"
     opacity="0.9"
     id="line29" /><line
     x1="48.417278"
     y1="137.07928"
     x2="48.417278"
     y2="177.07928"
     stroke="#ffffff"
     stroke-width="1.5"
     opacity="0.5"
     id="line30" /><ellipse
     cx="47.667278"
     cy="137.07928"
     rx="1.5"
     ry="0.80000001"
     fill="#000000"
     opacity="0.7"
     id="ellipse30" /><line
     x1="50.917278"
     y1="137.13928"
     x2="50.917278"
     y2="177.13928"
     stroke="#000000"
     stroke-width="2"
     opacity="0.9"
     id="line31" /><line
     x1="52.417278"
     y1="137.13928"
     x2="52.417278"
     y2="177.13928"
     stroke="#ffffff"
     stroke-width="1.5"
     opacity="0.5"
     id="line32" /><ellipse
     cx="51.667278"
     cy="137.13928"
     rx="1.5"
     ry="0.80000001"
     fill="#000000"
     opacity="0.7"
     id="ellipse32" /><line
     x1="54.917278"
     y1="137.07928"
     x2="54.917278"
     y2="177.07928"
     stroke="#000000"
     stroke-width="2"
     opacity="0.9"
     id="line33" /><line
     x1="56.417278"
     y1="137.07928"
     x2="56.417278"
     y2="177.07928"
     stroke="#ffffff"
     stroke-width="1.5"
     opacity="0.5"
     id="line34" /><ellipse
     cx="55.667278"
     cy="137.07928"
     rx="1.5"
     ry="0.80000001"
     fill="#000000"
     opacity="0.7"
     id="ellipse34" /><line
     x1="59.917278"
     y1="136.85928"
     x2="59.917278"
     y2="176.85928"
     stroke="#000000"
     stroke-width="2"
     opacity="0.9"
     id="line35" /><line
     x1="61.417278"
     y1="136.85928"
     x2="61.417278"
     y2="176.85928"
     stroke="#ffffff"
     stroke-width="1.5"
     opacity="0.5"
     id="line36" /><ellipse
     cx="60.667278"
     cy="136.85928"
     rx="1.5"
     ry="0.80000001"
     fill="#000000"
     opacity="0.7"
     id="ellipse36" /><line
     x1="64.917274"
     y1="136.43929"
     x2="64.917274"
     y2="176.43929"
     stroke="#000000"
     stroke-width="2"
     opacity="0.9"
     id="line37" /><line
     x1="66.417274"
     y1="136.43929"
     x2="66.417274"
     y2="176.43929"
     stroke="#ffffff"
     stroke-width="1.5"
     opacity="0.5"
     id="line38" /><ellipse
     cx="65.667274"
     cy="136.43929"
     rx="1.5"
     ry="0.80000001"
     fill="#000000"
     opacity="0.7"
     id="ellipse38" /><line
     x1="69.917274"
     y1="135.82928"
     x2="69.917274"
     y2="175.82928"
     stroke="#000000"
     stroke-width="2"
     opacity="0.9"
     id="line39" /><line
     x1="71.417274"
     y1="135.82928"
     x2="71.417274"
     y2="175.82928"
     stroke="#ffffff"
     stroke-width="1.5"
     opacity="0.5"
     id="line40" /><ellipse
     cx="70.667274"
     cy="135.82928"
     rx="1.5"
     ry="0.80000001"
     fill="#000000"
     opacity="0.7"
     id="ellipse40" /><line
     x1="74.917274"
     y1="134.99928"
     x2="74.917274"
     y2="174.99928"
     stroke="#000000"
     stroke-width="2"
     opacity="0.9"
     id="line41" /><line
     x1="76.417274"
     y1="134.99928"
     x2="76.417274"
     y2="174.99928"
     stroke="#ffffff"
     stroke-width="1.5"
     opacity="0.5"
     id="line42" /><ellipse
     cx="75.667274"
     cy="134.99928"
     rx="1.5"
     ry="0.80000001"
     fill="#000000"
     opacity="0.7"
     id="ellipse42" /><line
     x1="79.917274"
     y1="133.88928"
     x2="79.917274"
     y2="173.88928"
     stroke="#000000"
     stroke-width="2"
     opacity="0.9"
     id="line43" /><line
     x1="81.417274"
     y1="133.88928"
     x2="81.417274"
     y2="173.88928"
     stroke="#ffffff"
     stroke-width="1.5"
     opacity="0.5"
     id="line44" /><ellipse
     cx="80.667274"
     cy="133.88928"
     rx="1.5"
     ry="0.80000001"
     fill="#000000"
     opacity="0.7"
     id="ellipse44" /><line
     x1="84.917274"
     y1="132.42928"
     x2="84.917274"
     y2="172.42929"
     stroke="#000000"
     stroke-width="2"
     opacity="0.9"
     id="line45" /><line
     x1="86.417274"
     y1="132.42928"
     x2="86.417274"
     y2="172.42929"
     stroke="#ffffff"
     stroke-width="1.5"
     opacity="0.5"
     id="line46" /><ellipse
     cx="85.667274"
     cy="132.42928"
     rx="1.5"
     ry="0.80000001"
     fill="#000000"
     opacity="0.7"
     id="ellipse46" /><line
     x1="89.917274"
     y1="130.4693"
     x2="89.917274"
     y2="170.46928"
     stroke="#000000"
     stroke-width="2"
     opacity="0.9"
     id="line47" /><line
     x1="91.417274"
     y1="130.4693"
     x2="91.417274"
     y2="170.46928"
     stroke="#ffffff"
     stroke-width="1.5"
     opacity="0.5"
     id="line48" /><ellipse
     cx="90.667274"
     cy="130.4693"
     rx="1.5"
     ry="0.80000001"
     fill="#000000"
     opacity="0.7"
     id="ellipse48" /><line
     x1="94.917274"
     y1="127.53929"
     x2="94.917274"
     y2="167.53929"
     stroke="#000000"
     stroke-width="2"
     opacity="0.9"
     id="line49" /><line
     x1="96.417274"
     y1="127.53929"
     x2="96.417274"
     y2="167.53929"
     stroke="#ffffff"
     stroke-width="1.5"
     opacity="0.5"
     id="line50" /><path
     id="c"
     d="m 53.476246,80.401749 22.609306,2.367401 9.203751,-2.367401 7.107127,-13.24826 -1.938308,-6.622042 c 0,0 0.812977,-2.283895 0.808698,-3.469683 -0.0086,-2.054253 -0.243893,-4.313095 -1.4548,-5.99157 -0.962736,-1.336099 -3.029408,-2.960295 -4.655361,-3.348599 -4.646803,-1.102282 -8.163996,0.751556 -12.139024,3.348599 0,0 -2.858254,-1.728579 -6.362611,-3.081379 -1.20235,-0.46346 -3.179166,-0.885166 -4.137623,-1.173262 -2.554458,-0.772433 -8.720244,-1.260944 -8.720244,-1.260944 h -2.186479 c 0,0 -6.165785,0.488511 -8.720243,1.260944 -0.958457,0.288096 -2.930995,0.709802 -4.137623,1.173262 -3.504357,1.3528 -6.362612,3.081379 -6.362612,3.081379 -3.979306,-2.597043 -7.496499,-4.450881 -12.139024,-3.348599 -1.625953,0.384129 -3.692625,2.0125 -4.65536,3.348599 -1.206629,1.678475 -1.441964,3.941493 -1.4548,5.99157 -0.0043,1.185788 0.808697,3.469683 0.808697,3.469683 l -1.938307,6.622042 7.107127,13.24826 9.203751,2.367401 22.609306,-2.367401 h 1.540377 z"
     fill="#ce1126"
     style="stroke-width:0.422675" /><path
     id="d"
     d="m 47.862428,49.120324 -0.119807,-0.116909 c 0,0 -6.259919,0.684751 -8.797262,1.837137 -2.986619,1.356976 -4.732379,2.82251 -7.462269,4.622068 -1.613117,1.060529 -3.572818,2.496836 -5.45978,2.964471 -1.334993,0.329849 -3.183445,0.13361 -4.488486,-0.296447 -1.052591,-0.346551 -1.899798,-1.073055 -2.550179,-1.954046 -0.611872,-0.826711 -0.842929,-1.82461 -0.851486,-2.843386 -0.0086,-1.240067 0.149758,-1.891416 0.787303,-2.96447 0.770189,-1.290171 3.474405,-2.88514 5.036176,-2.784932 v 0 l 0.91139,0.05845 2.306286,0.592894 5.155983,2.784932 3.581376,-1.599144 2.973782,-1.540689 3.945076,-1.127334 4.792283,-0.592894 h 10.170765 l 4.792283,0.592894 3.945076,1.127334 2.973783,1.540689 3.581375,1.599144 5.155984,-2.784932 2.306286,-0.592894 0.911389,-0.05845 v 0 c 1.561771,-0.100208 4.265988,1.494761 5.036176,2.784932 0.637545,1.073054 0.795861,1.720228 0.787304,2.96447 -0.0086,1.018776 -0.239614,2.016675 -0.851486,2.843386 -0.650381,0.880991 -1.497589,1.607495 -2.550179,1.954046 -1.305042,0.430057 -3.153494,0.626296 -4.488487,0.296447 -1.886961,-0.467635 -3.846663,-1.899767 -5.459779,-2.964471 -2.72989,-1.799558 -4.47565,-3.265092 -7.46227,-4.622068 -2.541621,-1.152386 -8.797262,-1.837137 -8.797262,-1.837137 l -0.119807,0.116909 h -9.687258 z"
     fill="#de4f40"
     style="fill:#2a2aff;stroke-width:0.422675" /><path
     id="e"
     d="m 24.281829,50.460599 c -0.902832,0.04175 -1.886962,0.229642 -2.391863,0.609595 -1.377781,1.039652 -1.895519,2.509361 -0.243893,4.087629 0.996966,0.95197 2.892485,0.784958 4.308776,0.54279 1.198071,-0.20459 2.447487,-0.918568 3.397386,-1.657598 l 3.64128,-2.851737 -3.029408,0.968672 -0.949899,-0.09186 c -1.009802,-0.100207 -2.083787,-1.294346 -3.303252,-1.528164 -0.376536,-0.07098 -0.885717,-0.104382 -1.429127,-0.07933 z m 56.322161,0 c -0.342306,0.0084 -0.658939,0.0334 -0.911389,0.07933 -1.219465,0.233818 -2.29345,1.427957 -3.303252,1.528164 l -0.949899,0.09186 -3.029408,-0.968672 3.64128,2.851737 c 0.949899,0.743205 2.199315,1.453008 3.397386,1.657598 1.416291,0.242168 3.31181,0.40918 4.308776,-0.54279 1.651626,-1.578268 1.133888,-3.047977 -0.243893,-4.087629 -0.607593,-0.459284 -1.882683,-0.630472 -2.909601,-0.609595 z"
     fill="#ba1b24"
     style="stroke-width:0.422675" /><path
     id="f"
     d="M 50.446838,76.923715 35.710568,80.581287 20.974298,80.460203 14.855579,68.389381 14.38063,58.138994 c 2.871091,3.812058 5.01906,6.146057 13.743583,5.298469 3.594212,-0.47181 10.012448,-4.676348 13.311422,-6.150232 3.598491,-1.607495 9.259375,-3.09808 9.259375,-3.09808 h 4.017816 c 0,0 5.660884,1.490585 9.259375,3.09808 3.294695,1.473884 9.71721,5.678422 13.311422,6.150232 8.724522,0.847588 10.872492,-1.486411 13.743583,-5.298469 l -0.47495,10.250387 -6.118718,12.070822 -14.73627,0.121084 -14.73627,-3.657572 z"
     fill="#c31525"
     style="stroke-width:0.422675" /><path
     id="g"
     d="m 50.322752,77.044799 -16.357944,4.024999 -12.73806,-0.367427 -6.242804,-11.70757 -0.500622,-1.94987 c 0,0 7.975728,5.348573 11.796718,5.958168 4.50988,0.722329 8.104092,-0.07933 12.502724,-1.290171 4.894974,-1.348625 13.919014,-7.594889 13.919014,-7.594889 0,0 9.02404,6.250439 13.919015,7.594889 4.398631,1.21084 7.992844,2.0125 12.502724,1.290171 3.82099,-0.613771 11.796718,-5.958168 11.796718,-5.958168 l -0.500622,1.94987 -6.242804,11.70757 -12.73806,0.367427 -16.357944,-4.024999"
     fill="#aa1921"
     style="stroke-width:0.422675" /><path
     id="h"
     d="m 51.935869,80.401749 -22.609307,2.367401 -9.20375,-2.367401 -7.107127,-13.24826 1.938307,-6.622042 c 0,0 -0.812976,-2.283895 -0.808698,-3.469683 0.0086,-2.054253 0.243893,-4.313095 1.454801,-5.99157 0.962735,-1.336099 3.029407,-2.960295 4.65536,-3.348599 4.646803,-1.102282 8.163997,0.751556 12.139024,3.348599 0,0 2.858255,-1.728579 6.362612,-3.081379 1.202349,-0.46346 3.179166,-0.885166 4.137623,-1.173262 2.554458,-0.772433 8.720243,-1.260944 8.720243,-1.260944 h 2.186479 c 0,0 6.165786,0.488511 8.720244,1.260944 0.958456,0.288096 2.930994,0.709802 4.137623,1.173262 3.504357,1.3528 6.362611,3.081379 6.362611,3.081379 3.979307,-2.597043 7.4965,-4.450881 12.139024,-3.348599 1.625953,0.384129 3.692625,2.0125 4.655361,3.348599 1.206628,1.678475 1.441963,3.941493 1.4548,5.99157 0.0043,1.185788 -0.808698,3.469683 -0.808698,3.469683 l 1.938307,6.622042 -7.107126,13.24826 -9.203751,2.367401 -22.609307,-2.367401 h -1.540376 z"
     fill="none"
     stroke="#1a1a1a"
     stroke-miterlimit="4.07"
     stroke-width="0.49453" /><g
     id="j"
     transform="matrix(0.42788241,0,0,0.41753103,1.7367046,-1.4886122)"><g
       id="k"><path
         id="l"
         d="M 124.15,60.15 C 104.39,59.13 79.35,65.85 58.12,80.74 36.89,95.63 19.6,119.3 17.94,151.23 l 13.2,0.69 c 1.44,-27.58 15.89,-47.25 34.57,-60.35 18.68,-13.1 41.72,-19.04 57.77,-18.21 l 0.68,-13.21 v 0 z"
         fill="#f3d328"
         fill-rule="evenodd" /><path
         id="m"
         d="m 24.53,151.58 6.6,0.34 C 32.57,124.34 47.02,104.67 65.7,91.57 84.38,78.47 107.42,72.53 123.47,73.36 l 0.34,-6.6 C 92.23,67.04 32.55,86.31 24.53,151.59 Z"
         fill="#eac102"
         fill-rule="evenodd" /><path
         id="n"
         d="M 124.15,60.15 C 104.39,59.13 79.35,65.85 58.12,80.74 36.89,95.63 19.6,119.3 17.94,151.23 l 13.2,0.69 c 1.44,-27.58 15.89,-47.25 34.57,-60.35 18.68,-13.1 41.72,-19.04 57.77,-18.21 l 0.68,-13.21 v 0 z"
         fill="none"
         stroke="#000000"
         stroke-miterlimit="4.07"
         stroke-width="1.17" /></g><g
       id="o"
       style="fill:#ffaaaa"><ellipse
         id="p"
         cx="9.8900003"
         cy="138.00999"
         rx="9.6599998"
         ry="9.6700001"
         fill="#cccccc"
         style="fill:#ffaaaa" /><ellipse
         id="q"
         cx="9.2299995"
         cy="136.74001"
         rx="7.3000002"
         ry="7.5"
         transform="rotate(-87.3,9.2270851,136.73422)"
         fill="#e6e6e6"
         style="fill:#ffaaaa" /><ellipse
         id="r"
         cx="7.98"
         cy="135.41"
         rx="5.5700002"
         ry="5.54"
         transform="rotate(-87.75,7.9856571,135.40654)"
         fill="#ffffff"
         style="fill:#ffaaaa" /><ellipse
         id="s"
         cx="9.8900003"
         cy="138.00999"
         rx="9.6599998"
         ry="9.6700001"
         fill="none"
         stroke="#1a1a1a"
         stroke-width="0.45"
         style="fill:#ffaaaa" /></g><g
       id="t"
       style="fill:#ffaaaa"><ellipse
         id="u"
         cx="15.15"
         cy="119.24"
         rx="9.6599998"
         ry="9.6700001"
         fill="#cccccc"
         style="fill:#ffaaaa" /><ellipse
         id="v"
         cx="14.5"
         cy="117.97"
         rx="7.3000002"
         ry="7.5"
         transform="rotate(-87.3,14.4975,117.96553)"
         fill="#e6e6e6"
         style="fill:#ffaaaa" /><ellipse
         id="w"
         cx="13.25"
         cy="116.63"
         rx="5.5700002"
         ry="5.54"
         transform="rotate(-87.75,13.254863,116.6344)"
         fill="#ffffff"
         style="fill:#ffaaaa" /><ellipse
         id="x"
         cx="15.15"
         cy="119.24"
         rx="9.6599998"
         ry="9.6700001"
         fill="none"
         stroke="#1a1a1a"
         stroke-width="0.45"
         style="fill:#ffaaaa" /></g><g
       id="y"
       style="fill:#ffaaaa"><ellipse
         id="z"
         cx="24.190001"
         cy="102.29"
         rx="9.6599998"
         ry="9.6700001"
         fill="#cccccc"
         style="fill:#ffaaaa" /><ellipse
         id="aa"
         cx="23.540001"
         cy="101.02"
         rx="7.3000002"
         ry="7.5"
         transform="rotate(-87.3,23.535659,101.01912)"
         fill="#e6e6e6"
         style="fill:#ffaaaa" /><ellipse
         id="ab"
         cx="22.290001"
         cy="99.690002"
         rx="5.5700002"
         ry="5.54"
         transform="rotate(-87.75,22.29464,99.686211)"
         fill="#ffffff"
         style="fill:#ffaaaa" /><ellipse
         id="ac"
         cx="24.190001"
         cy="102.29"
         rx="9.6599998"
         ry="9.6700001"
         fill="none"
         stroke="#1a1a1a"
         stroke-width="0.45"
         style="fill:#ffaaaa" /></g><g
       id="ad"
       style="fill:#ffaaaa"><ellipse
         id="ae"
         cx="36.189999"
         cy="86.860001"
         rx="9.6599998"
         ry="9.6700001"
         fill="#cccccc"
         style="fill:#ffaaaa" /><ellipse
         id="af"
         cx="35.540001"
         cy="85.589996"
         rx="7.3000002"
         ry="7.5"
         transform="rotate(-87.3,35.535011,85.586094)"
         fill="#e6e6e6"
         style="fill:#ffaaaa" /><ellipse
         id="ag"
         cx="34.290001"
         cy="84.25"
         rx="5.5700002"
         ry="5.54"
         transform="rotate(-87.75,34.292752,84.25138)"
         fill="#ffffff"
         style="fill:#ffaaaa" /><ellipse
         id="ah"
         cx="36.189999"
         cy="86.860001"
         rx="9.6599998"
         ry="9.6700001"
         fill="none"
         stroke="#1a1a1a"
         stroke-width="0.45"
         style="fill:#ffaaaa" /></g><g
       id="ai"
       style="fill:#ffaaaa"><ellipse
         id="aj"
         cx="50.830002"
         cy="74.029999"
         rx="9.6599998"
         ry="9.6700001"
         fill="#cccccc"
         style="fill:#ffaaaa" /><ellipse
         id="ak"
         cx="50.169998"
         cy="72.760002"
         rx="7.3000002"
         ry="7.5"
         transform="rotate(-87.3,50.167694,72.755239)"
         fill="#e6e6e6"
         style="fill:#ffaaaa" /><ellipse
         id="al"
         cx="48.93"
         cy="71.419998"
         rx="5.5700002"
         ry="5.54"
         transform="rotate(-87.75,48.928823,71.422951)"
         fill="#ffffff"
         style="fill:#ffaaaa" /><ellipse
         id="am"
         cx="50.830002"
         cy="74.029999"
         rx="9.6599998"
         ry="9.6700001"
         fill="none"
         stroke="#1a1a1a"
         stroke-width="0.45"
         style="fill:#ffaaaa" /></g><g
       id="an"
       style="fill:#ffaaaa"><ellipse
         id="ao"
         cx="67.550003"
         cy="63.77"
         rx="9.6599998"
         ry="9.6700001"
         fill="#cccccc"
         style="fill:#ffaaaa" /><ellipse
         id="ap"
         cx="66.889999"
         cy="62.5"
         rx="7.3000002"
         ry="7.5"
         transform="rotate(-87.3,66.88995,62.498383)"
         fill="#e6e6e6"
         style="fill:#ffaaaa" /><ellipse
         id="aq"
         cx="65.650002"
         cy="61.169998"
         rx="5.5700002"
         ry="5.54"
         transform="rotate(-87.75,65.646034,61.16594)"
         fill="#ffffff"
         style="fill:#ffaaaa" /><ellipse
         id="ar"
         cx="67.550003"
         cy="63.77"
         rx="9.6599998"
         ry="9.6700001"
         fill="none"
         stroke="#1a1a1a"
         stroke-width="0.45"
         style="fill:#ffaaaa" /></g><g
       id="as"
       style="fill:#ffaaaa"><ellipse
         id="at"
         cx="85.519997"
         cy="56.330002"
         rx="9.6599998"
         ry="9.6700001"
         fill="#cccccc"
         style="fill:#ffaaaa" /><ellipse
         id="au"
         cx="84.860001"
         cy="55.060001"
         rx="7.3000002"
         ry="7.5"
         transform="rotate(-87.3,84.857057,55.060867)"
         fill="#e6e6e6"
         style="fill:#ffaaaa" /><ellipse
         id="av"
         cx="83.610001"
         cy="53.73"
         rx="5.5700002"
         ry="5.54"
         transform="rotate(-87.75,83.617568,53.726178)"
         fill="#ffffff"
         style="fill:#ffaaaa" /><ellipse
         id="aw"
         cx="85.519997"
         cy="56.330002"
         rx="9.6599998"
         ry="9.6700001"
         fill="none"
         stroke="#1a1a1a"
         stroke-width="0.45"
         style="fill:#ffaaaa" /></g></g><ellipse
     id="gg-8"
     cx="5.1216402"
     cy="54.533367"
     rx="1.5692163"
     ry="1.0995686"
     fill="#ffffff"
     style="stroke-width:0.299902"
     inkscape:transform-center-x="-3.5129966"
     inkscape:transform-center-y="4.215596" /><g
     id="ax"
     transform="matrix(0.42788241,0,0,0.41753103,1.7367046,-1.4886122)"><g
       id="ay"><path
         id="az"
         d="m 114.09,60.15 c 19.76,-1.02 44.8,5.7 66.03,20.59 21.23,14.89 38.52,38.56 40.18,70.49 l -13.2,0.69 C 205.66,124.34 191.21,104.67 172.53,91.57 153.85,78.47 130.81,72.53 114.76,73.36 l -0.68,-13.21 v 0 z"
         fill="#f3d328"
         fill-rule="evenodd" /><path
         id="ba"
         d="m 213.71,151.58 -6.6,0.34 C 205.67,124.34 191.22,104.67 172.54,91.57 153.86,78.47 130.82,72.53 114.77,73.36 l -0.34,-6.6 c 31.58,0.28 91.26,19.55 99.28,84.83 z"
         fill="#eac102"
         fill-rule="evenodd" /><path
         id="bb"
         d="m 114.09,60.15 c 19.76,-1.02 44.8,5.7 66.03,20.59 21.23,14.89 38.52,38.56 40.18,70.49 l -13.2,0.69 C 205.66,124.34 191.21,104.67 172.53,91.57 153.85,78.47 130.81,72.53 114.76,73.36 l -0.68,-13.21 v 0 z"
         fill="none"
         stroke="#000000"
         stroke-miterlimit="4.07"
         stroke-width="1.17" /></g><g
       id="bc"
       style="fill:#ffaaaa"><ellipse
         id="bd"
         cx="228.36"
         cy="138.00999"
         rx="9.6599998"
         ry="9.6700001"
         fill="#cccccc"
         style="fill:#ffaaaa" /><ellipse
         id="be"
         cx="229.00999"
         cy="136.74001"
         rx="7.5"
         ry="7.3000002"
         transform="rotate(-2.7,229.22321,137.01874)"
         fill="#e6e6e6"
         style="fill:#ffaaaa" /><ellipse
         id="bf"
         cx="230.25999"
         cy="135.41"
         rx="5.54"
         ry="5.5700002"
         transform="rotate(-2.25,230.14828,135.4422)"
         fill="#ffffff"
         style="fill:#ffaaaa" /><ellipse
         id="bg"
         cx="228.36"
         cy="138.00999"
         rx="9.6599998"
         ry="9.6700001"
         fill="none"
         stroke="#1a1a1a"
         stroke-width="0.45"
         style="fill:#ffaaaa" /></g><g
       id="bh"
       style="fill:#ffaaaa"><ellipse
         id="bi"
         cx="223.09"
         cy="119.24"
         rx="9.6599998"
         ry="9.6700001"
         fill="#cccccc"
         style="fill:#ffaaaa" /><ellipse
         id="bj"
         cx="223.74001"
         cy="117.97"
         rx="7.5"
         ry="7.3000002"
         transform="rotate(-2.7,224.14686,118.21801)"
         fill="#e6e6e6"
         style="fill:#ffaaaa" /><ellipse
         id="bk"
         cx="224.99001"
         cy="116.63"
         rx="5.54"
         ry="5.5700002"
         transform="rotate(-2.25,224.91674,116.49068)"
         fill="#ffffff"
         style="fill:#ffaaaa" /><ellipse
         id="bl"
         cx="223.09"
         cy="119.24"
         rx="9.6599998"
         ry="9.6700001"
         fill="none"
         stroke="#1a1a1a"
         stroke-width="0.45"
         style="fill:#ffaaaa" /></g><g
       id="bm"
       style="fill:#ffaaaa"><ellipse
         id="bn"
         cx="214.05"
         cy="102.29"
         rx="9.6599998"
         ry="9.6700001"
         fill="#cccccc"
         style="fill:#ffaaaa" /><ellipse
         id="bo"
         cx="214.7"
         cy="101.02"
         rx="7.5"
         ry="7.3000002"
         transform="rotate(-2.7,214.99434,101.2318)"
         fill="#e6e6e6"
         style="fill:#ffaaaa" /><ellipse
         id="bp"
         cx="215.95"
         cy="99.690002"
         rx="5.54"
         ry="5.5700002"
         transform="rotate(-2.25,215.82098,99.755694)"
         fill="#ffffff"
         style="fill:#ffaaaa" /><ellipse
         id="bq"
         cx="214.05"
         cy="102.29"
         rx="9.6599998"
         ry="9.6700001"
         fill="none"
         stroke="#1a1a1a"
         stroke-width="0.45"
         style="fill:#ffaaaa" /></g><g
       id="br"
       style="fill:#ffaaaa"><ellipse
         id="bs"
         cx="202.05"
         cy="86.860001"
         rx="9.6599998"
         ry="9.6700001"
         fill="#cccccc"
         style="fill:#ffaaaa" /><ellipse
         id="bt"
         cx="202.7"
         cy="85.589996"
         rx="7.5"
         ry="7.3000002"
         transform="rotate(-2.7,203.04863,85.665749)"
         fill="#e6e6e6"
         style="fill:#ffaaaa" /><ellipse
         id="bu"
         cx="203.95"
         cy="84.25"
         rx="5.54"
         ry="5.5700002"
         transform="rotate(-2.25,203.89945,84.238783)"
         fill="#ffffff"
         style="fill:#ffaaaa" /><ellipse
         id="bv"
         cx="202.05"
         cy="86.860001"
         rx="9.6599998"
         ry="9.6700001"
         fill="none"
         stroke="#1a1a1a"
         stroke-width="0.45"
         style="fill:#ffaaaa" /></g><g
       id="bw"
       style="fill:#ffaaaa"><ellipse
         id="bx"
         cx="187.41"
         cy="74.029999"
         rx="9.6599998"
         ry="9.6700001"
         fill="#cccccc"
         style="fill:#ffaaaa" /><ellipse
         id="by"
         cx="188.07001"
         cy="72.760002"
         rx="7.5"
         ry="7.3000002"
         transform="rotate(-2.7,188.27975,72.792877)"
         fill="#e6e6e6"
         style="fill:#ffaaaa" /><ellipse
         id="bz"
         cx="189.32001"
         cy="71.419998"
         rx="5.54"
         ry="5.5700002"
         transform="rotate(-2.25,189.37677,71.472639)"
         fill="#ffffff"
         style="fill:#ffaaaa" /><ellipse
         id="ca"
         cx="187.41"
         cy="74.029999"
         rx="9.6599998"
         ry="9.6700001"
         fill="none"
         stroke="#1a1a1a"
         stroke-width="0.45"
         style="fill:#ffaaaa" /></g><g
       id="cb"
       style="fill:#ffaaaa"><ellipse
         id="cc"
         cx="170.69"
         cy="63.77"
         rx="9.6599998"
         ry="9.6700001"
         fill="#cccccc"
         style="fill:#ffaaaa" /><ellipse
         id="cd"
         cx="171.35001"
         cy="62.5"
         rx="7.5"
         ry="7.3000002"
         transform="rotate(-2.7,171.53637,62.63318)"
         fill="#e6e6e6"
         style="fill:#ffaaaa" /><ellipse
         id="ce"
         cx="172.60001"
         cy="61.169998"
         rx="5.54"
         ry="5.5700002"
         transform="rotate(-2.25,172.51255,61.207647)"
         fill="#ffffff"
         style="fill:#ffaaaa" /><ellipse
         id="cf"
         cx="170.69"
         cy="63.77"
         rx="9.6599998"
         ry="9.6700001"
         fill="none"
         stroke="#1a1a1a"
         stroke-width="0.45"
         style="fill:#ffaaaa" /></g><g
       id="cg"
       style="fill:#ffaaaa"><ellipse
         id="ch"
         cx="152.73"
         cy="56.330002"
         rx="9.6599998"
         ry="9.6700001"
         fill="#cccccc"
         style="fill:#ffaaaa" /><ellipse
         id="ci"
         cx="153.38"
         cy="55.060001"
         rx="7.5"
         ry="7.3000002"
         transform="rotate(-2.7,153.66714,55.206659)"
         fill="#e6e6e6"
         style="fill:#ffaaaa" /><ellipse
         id="cj"
         cx="154.63"
         cy="53.73"
         rx="5.54"
         ry="5.5700002"
         transform="rotate(-2.25,154.57488,53.723421)"
         fill="#ffffff"
         style="fill:#ffaaaa" /><ellipse
         id="ck"
         cx="152.73"
         cy="56.330002"
         rx="9.6599998"
         ry="9.6700001"
         fill="none"
         stroke="#1a1a1a"
         stroke-width="0.45"
         style="fill:#ffaaaa" /></g></g><path
     id="cm"
     d="m 59.346792,24.122741 3.354598,0.901867 c -1.681577,5.949817 -3.863778,18.63441 -4.398631,29.064335 l -5.596702,0.709803 -5.596702,-0.709803 C 46.578781,43.663193 44.392302,30.974425 42.710724,25.024608 l 3.354598,-0.901867 z"
     fill="#f3d328"
     fill-rule="evenodd"
     stroke="#000000"
     stroke-miterlimit="4.2"
     stroke-width="0.49453" /><g
     id="cn"
     transform="matrix(0.42788241,0,0,0.41753103,1.7367046,-1.4886122)"><path
       id="co"
       d="m 115.43,14.58 c -1.17,-5.51 -6.12,-9.8 -10.94,-14.14 9.81,1.06 19.61,0.74 29.42,0 -4.43,4.52 -10.76,8.51 -11.2,14.14 5.71,-2.48 9.39,-7.49 13.79,-11.62 -1.04,8.3 -0.32,16.59 0,24.89 -4.37,-3.51 -8.09,-7.96 -13.79,-9.53 1.69,5.15 5.86,9.1 11.31,12.44 h -29.86 c 4.94,-3.46 9.42,-7.22 11.27,-12.44 -5.42,1.75 -9.32,6.28 -13.68,9.98 0.77,-8.37 0.68,-16.74 0,-25.11 4.19,4.56 8.11,9.71 13.68,11.39 z"
       fill="#f3d328"
       stroke="#1a1a1a"
       stroke-width="0.67" /><g
       id="cp"
       style="fill:#d35f5f"><circle
         id="cq"
         cx="119.12"
         cy="15.61"
         fill="#cccccc"
         r="6.5100002"
         style="fill:#d35f5f" /><ellipse
         id="cr"
         cx="118.64"
         cy="14.77"
         rx="5.0500002"
         ry="4.9200001"
         fill="#e6e6e6"
         style="fill:#d35f5f" /><ellipse
         id="cs"
         cx="117.76"
         cy="13.91"
         rx="3.74"
         ry="3.75"
         fill="#ffffff"
         style="fill:#d35f5f" /><circle
         id="ct"
         cx="119.12"
         cy="15.61"
         fill="none"
         stroke="#1a1a1a"
         stroke-width="0.67"
         style="fill:#d35f5f"
         r="6.5100002" /></g><g
       id="cu"><g
         id="cv"><ellipse
           id="cw"
           cx="119.12"
           cy="48.860001"
           rx="17.68"
           ry="17.690001"
           fill="#f3d328"
           stroke="#1a1a1a"
           stroke-width="0.68" /><ellipse
           id="cx"
           cx="116.01"
           cy="43.669998"
           rx="10.11"
           ry="9.8199997"
           fill="#f7e272" /></g><path
         id="cy"
         d="m 118.4,29.37 c -1.63,0 -2.94,1.31 -2.94,2.94 v 11.74 h -11.79 c -1.63,0 -2.99,1.31 -2.99,2.94 v 1.31 c 0,1.63 1.36,2.94 2.99,2.94 h 30.93 c 1.63,0 2.94,-1.31 2.94,-2.94 v -1.31 c 0,-1.63 -1.31,-2.94 -2.94,-2.94 H 122.81 V 32.31 c 0,-1.63 -1.31,-2.94 -2.94,-2.94 h -1.49 z"
         fill="#f4d30d" /><path
         id="cz"
         d="m 119.22,29.25 -3.37,1.09 -0.3,13.93 -12.26,-0.14 -2.45,2.58 v 0.92 l 17.61,-0.14 0.76,-18.25 z m 3.53,14.55 -0.46,0.79 0.03,3.16 15.14,0.05 v -1.69 l -2.47,-2.15 -12.23,-0.16 z"
         fill="#f7e272" /><path
         id="da"
         d="m 118.4,29.37 c -1.63,0 -2.94,1.31 -2.94,2.94 v 11.74 h -11.79 c -1.63,0 -2.99,1.31 -2.99,2.94 v 1.31 c 0,1.63 1.36,2.94 2.99,2.94 h 30.93 c 1.63,0 2.94,-1.31 2.94,-2.94 v -1.31 c 0,-1.63 -1.31,-2.94 -2.94,-2.94 H 122.81 V 32.31 c 0,-1.63 -1.31,-2.94 -2.94,-2.94 h -1.49 z"
         fill="none"
         stroke="#1a1a1a"
         stroke-width="0.67"
         style="fill:#0066ff" /></g></g><path
     id="ec"
     d="m 43.56221,24.678057 -2.597246,0.701453 c 1.621674,5.736876 4.723822,18.258632 5.250117,28.563297 l 2.69138,1.624196 C 48.36733,45.015994 45.303692,30.840815 43.56221,24.678057 Z m 18.291973,0 c -1.741481,6.162758 -4.805119,20.342112 -5.344251,30.888946 l 2.69138,-1.624196 C 59.727608,43.638142 62.829755,31.116386 64.451429,25.37951 Z"
     fill="#f3d328"
     fill-rule="evenodd"
     stroke="#000000"
     stroke-miterlimit="4.2"
     stroke-width="0.49453" /><path
     id="ee"
     d="m 20.499348,91.032089 c 0,0 -4.270266,-13.624038 -7.333904,-20.062366 -1.49331,-3.135658 -4.5826208,-8.964391 -4.5826208,-8.964391 l 6.2770348,-3.536488 3.230512,-0.442583 c -1.587443,4.133557 -1.476194,7.022872 -1.510425,10.020745 3.324647,-0.559492 4.856466,-3.0271 6.640735,-4.713926 l 2.11374,8.692996 c -3.328926,-1.444657 -5.549635,-0.722328 -7.693326,0.146136 0,0 1.373502,2.62627 2.413257,3.536488 1.189513,1.043828 2.498833,1.640897 4.07344,1.916467 1.489031,0.25887 3.16633,0.350726 4.526996,-0.296447 2.866812,-1.356976 4.325891,-4.321446 3.923682,-4.125206 0,0 0.286681,-2.601219 -0.453556,-3.536488 -0.551968,-0.701452 -1.690135,-1.269294 -2.563015,-1.031302 -1.377782,0.375778 -2.113739,3.390352 -2.113739,3.390352 0,0 -1.322157,-2.56364 -1.660184,-3.97907 -0.295239,-1.244243 -0.735958,-2.6889 -0.149759,-3.832935 0.43644,-0.851764 1.4548,-1.448833 2.413257,-1.620021 1.270811,-0.229642 3.619885,0.885166 3.619885,0.885166 0,0 -0.701727,-2.308947 -0.907111,-3.536488 -0.102691,-0.630472 0.05135,-1.473884 0.303797,-2.062603 0.573362,-1.348625 2.263498,-2.505186 2.062393,-2.513537 -0.201105,-0.0084 1.728645,0.705628 2.622919,1.874714 0.389373,0.513564 0.753073,1.290171 0.812977,1.928994 0.111249,1.235892 0.01284,3.645046 0.01284,3.645046 0,0 1.998211,-1.645073 3.286137,-1.724403 0.975572,-0.06263 2.10946,0.271395 2.747005,0.989548 0.855765,0.964497 0.791583,2.471784 0.817256,3.749429 0.02995,1.453008 -0.607593,4.254641 -0.607593,4.254641 0,0 -1.471916,-2.743179 -2.901043,-2.776581 -0.907111,-0.02088 -1.865567,0.801659 -2.224989,1.615845 -0.483507,1.08558 0.453556,3.536488 0.453556,3.536488 5.648048,4.304744 11.488642,-0.108559 12.686713,-4.413303 v -1.620021 c -2.361911,0.317324 -3.371713,0.722329 -5.733624,3.390352 L 44.349514,59.061738 c 2.263498,1.999973 4.223199,2.718127 6.486697,2.35905 -0.213941,-3.127307 -1.8185,-4.517686 -4.428583,-7.252514 l 2.563016,-0.734855 h 7.67621 l 2.563016,0.734855 c -2.614362,2.734828 -4.411468,4.125207 -4.625409,7.252514 2.263498,0.359077 4.223199,-0.359077 6.486697,-2.35905 l -0.753073,10.755599 c -2.361911,-2.663848 -3.371713,-3.073028 -5.733624,-3.390352 v 1.620021 c 1.198071,4.300569 7.038666,8.718047 12.686714,4.413303 0,0 0.932783,-2.450908 0.453555,-3.536488 -0.359421,-0.814186 -1.322157,-1.636722 -2.224989,-1.615845 -1.429127,0.0334 -2.901042,2.776581 -2.901042,2.776581 0,0 -0.637545,-2.805809 -0.607593,-4.254641 0.02567,-1.277645 -0.03851,-2.784932 0.817255,-3.749429 0.637545,-0.722329 1.775712,-1.052178 2.747005,-0.989548 1.292205,0.08351 3.286137,1.724403 3.286137,1.724403 0,0 -0.09841,-2.409154 0.01284,-3.645046 0.05563,-0.634647 0.419325,-1.41543 0.812977,-1.928994 0.894274,-1.169086 2.824024,-1.883064 2.622919,-1.874714 -0.201105,0.0084 1.489031,1.164912 2.062393,2.513537 0.248172,0.588719 0.406489,1.432131 0.303797,2.062603 -0.205384,1.227541 -0.907111,3.536488 -0.907111,3.536488 0,0 2.349075,-1.114808 3.619885,-0.885166 0.958457,0.175363 1.976817,0.768257 2.413257,1.620021 0.586199,1.144035 0.14548,2.584517 -0.149759,3.832935 -0.338027,1.41543 -1.660183,3.97907 -1.660183,3.97907 0,0 -0.735958,-3.014574 -2.11374,-3.390352 -0.87288,-0.237992 -2.011047,0.32985 -2.563015,1.031302 -0.740237,0.935269 -0.453556,3.536488 -0.453556,3.536488 -0.402209,-0.19624 1.05687,2.76823 3.923682,4.125206 1.360666,0.647173 3.037965,0.555317 4.526996,0.296447 1.574607,-0.27557 2.883928,-0.872639 4.073441,-1.916467 1.039754,-0.910218 2.413256,-3.536488 2.413256,-3.536488 -2.14369,-0.868464 -4.3644,-1.590793 -7.693325,-0.146136 l 2.113739,-8.692996 c 1.784269,1.686826 3.31181,4.154434 6.640735,4.713926 -0.02995,-2.993698 0.07702,-5.887188 -1.510425,-10.020745 l 2.930994,0.526089 6.576553,3.448806 c 0,0 -3.09359,5.828733 -4.582621,8.964391 -3.063638,6.438329 -7.333904,20.062366 -7.333904,20.062366 L 84.78868,91.395341 C 62.928168,86.618786 41.563999,87.174102 20.507906,91.027913 v 0 z"
     fill="#f3d328"
     style="stroke-width:0.422675" /><g
     id="el-7"
     transform="matrix(0.42788241,0,0,0.41753103,23.544243,1.5866868)"><path
       id="em-0"
       d="m 111.3,183.41 h 15.66 c 2.52,0 4.57,2.05 4.57,4.57 v 5.19 c 0,2.53 -2.05,4.58 -4.58,4.58 h -15.66 c -2.52,0 -4.57,-2.05 -4.57,-4.57 v -5.19 c 0,-2.53 2.05,-4.58 4.58,-4.58 z"
       fill="#1d369e" /><path
       id="en-4"
       d="m 110.15,194.83 -0.12,-6.59 1.76,-1.53 15.4,-0.12 2.12,3.29 -0.12,4.23 h 2.23 l 0.12,-6.94 -2.82,-4 -18.34,0.24 -3.41,2.59 0.12,7.76 1.18,1.41 1.88,-0.35 v 0 z"
       fill="#4163ef" /><path
       id="eo-4"
       d="m 107.45,191.65 4.23,2.82 14.58,0.12 1.88,-1.88 0.12,-4.23 2.47,-3.76 1.29,2.59 -0.59,7.65 -2.35,3.18 -17.98,-0.35 -3.76,-2.47 -0.59,-1.53 0.71,-2.12 v 0 c 0,0 0,0 0,0 z"
       fill="#2545cb" /><path
       id="ep-9"
       d="m 111.3,183.41 h 15.66 c 2.52,0 4.57,2.05 4.57,4.57 v 5.19 c 0,2.53 -2.05,4.58 -4.58,4.58 h -15.66 c -2.52,0 -4.57,-2.05 -4.57,-4.57 v -5.19 c 0,-2.53 2.05,-4.58 4.58,-4.58 z"
       fill="none"
       stroke="#000000"
       stroke-width="0.57" /><path
       id="eq-7"
       d="m 113.06,187.84 h 4.69 c 0.84,0 1.53,0.69 1.53,1.53 v 0.19 c 0,0.84 -0.69,1.53 -1.53,1.53 h -4.69 c -0.84,0 -1.53,-0.69 -1.53,-1.53 v -0.19 c 0,-0.84 0.69,-1.53 1.53,-1.53 z"
       fill="#5674f1" /></g><g
     id="el-9"
     transform="matrix(0.42788241,0,0,0.41753103,-19.579144,1.7994447)"
     inkscape:transform-center-x="-17.530946"
     inkscape:transform-center-y="0.022499999"><path
       id="em-4"
       d="m 111.3,183.41 h 15.66 c 2.52,0 4.57,2.05 4.57,4.57 v 5.19 c 0,2.53 -2.05,4.58 -4.58,4.58 h -15.66 c -2.52,0 -4.57,-2.05 -4.57,-4.57 v -5.19 c 0,-2.53 2.05,-4.58 4.58,-4.58 z"
       fill="#1d369e" /><path
       id="en-7"
       d="m 110.15,194.83 -0.12,-6.59 1.76,-1.53 15.4,-0.12 2.12,3.29 -0.12,4.23 h 2.23 l 0.12,-6.94 -2.82,-4 -18.34,0.24 -3.41,2.59 0.12,7.76 1.18,1.41 1.88,-0.35 v 0 z"
       fill="#4163ef" /><path
       id="eo-0"
       d="m 107.45,191.65 4.23,2.82 14.58,0.12 1.88,-1.88 0.12,-4.23 2.47,-3.76 1.29,2.59 -0.59,7.65 -2.35,3.18 -17.98,-0.35 -3.76,-2.47 -0.59,-1.53 0.71,-2.12 v 0 c 0,0 0,0 0,0 z"
       fill="#2545cb" /><path
       id="ep-6"
       d="m 111.3,183.41 h 15.66 c 2.52,0 4.57,2.05 4.57,4.57 v 5.19 c 0,2.53 -2.05,4.58 -4.58,4.58 h -15.66 c -2.52,0 -4.57,-2.05 -4.57,-4.57 v -5.19 c 0,-2.53 2.05,-4.58 4.58,-4.58 z"
       fill="none"
       stroke="#000000"
       stroke-width="0.57" /><path
       id="eq-3"
       d="m 113.06,187.84 h 4.69 c 0.84,0 1.53,0.69 1.53,1.53 v 0.19 c 0,0.84 -0.69,1.53 -1.53,1.53 h -4.69 c -0.84,0 -1.53,-0.69 -1.53,-1.53 v -0.19 c 0,-0.84 0.69,-1.53 1.53,-1.53 z"
       fill="#5674f1" /></g><path
     id="ef"
     d="m 26.725037,89.992436 c -2.079508,0.313149 -4.154738,0.6597 -6.225689,1.039653 0,0 -4.270266,-13.624038 -7.333904,-20.062366 -1.49331,-3.135658 -4.5826208,-8.964391 -4.5826208,-8.964391 l 6.2770348,-3.536488 3.230512,-0.442583 c -1.587443,4.133557 -1.476194,7.022872 -1.510425,10.020745 3.324647,-0.559492 4.856466,-3.0271 6.640735,-4.713926 l 2.11374,8.692996 c -3.328926,-1.444657 -5.549635,-0.722328 -7.693326,0.146136 0,0 1.373502,2.62627 2.413257,3.536488 1.189513,1.043828 2.498833,1.640897 4.07344,1.916467 l 2.605804,12.367269 v 0 z M 81.288602,77.625167 C 82.86321,77.349597 84.17253,76.752528 85.362043,75.7087 86.401797,74.798482 87.7753,72.172212 87.7753,72.172212 85.631609,71.303748 83.410899,70.581419 80.081974,72.026076 l 2.113739,-8.692996 c 1.78427,1.686826 3.31181,4.154434 6.640735,4.713926 -0.02995,-2.993698 0.07702,-5.887188 -1.510425,-10.020745 l 2.930995,0.526089 6.576552,3.448806 c 0,0 -3.09359,5.828733 -4.58262,8.964391 -3.063638,6.438329 -7.333905,20.062366 -7.333905,20.062366 l -0.132643,0.367428 c -2.130855,-0.467635 -4.25743,-0.880991 -6.384006,-1.248418 l -0.278124,-0.279746 3.170609,-12.246185 v 0 z"
     fill="#eac102"
     style="stroke-width:0.422675" /><path
     id="eg"
     d="m 18.903347,71.917518 -1.467637,-4.062577 1.835616,-0.718153 3.671231,-3.586592 2.32768,8.605315 -3.303252,-0.956146 h -1.71153 l -1.347829,0.718153 v 0 z"
     fill="#eac102"
     style="stroke-width:0.422675" /><path
     id="eh"
     d="m 86.333336,71.842363 1.467637,-4.062577 -1.835616,-0.718154 -3.671231,-3.586591 -2.32768,8.605314 3.303252,-0.956146 h 1.711529 l 1.34783,0.718154 v 0 z"
     fill="#fcc917"
     style="stroke-width:0.422675" /><path
     id="ei"
     d="m 15.351923,58.172397 -7.0942905,3.941493 2.2164305,3.728552 6.195738,-2.467609 1.493309,-5.202436 h -2.815466 z m 71.777274,0.04175 1.343551,5.056301 6.345496,2.62627 2.216431,-3.741078 -7.09429,-3.941493 c 0,0 -2.815467,0 -2.815467,0 z m -4.894975,5.202436 -2.079508,8.718048 2.815466,-1.315222 1.71153,-4.659647 -2.447488,-2.747354 z m -58.919407,0.01253 -2.460324,2.747355 1.724366,4.659646 2.815466,1.315223 -2.079508,-8.718048 z"
     fill="#f3d328"
     style="stroke-width:0.422675" /><path
     id="ej"
     d="m 20.499348,91.032089 c 0,0 -4.270266,-13.624038 -7.333904,-20.062366 -1.49331,-3.135658 -4.5826208,-8.964391 -4.5826208,-8.964391 l 6.2770348,-3.536488 3.230512,-0.442583 c -1.587443,4.133557 -1.476194,7.022872 -1.510425,10.020745 3.324647,-0.559492 4.856466,-3.0271 6.640735,-4.713926 l 2.11374,8.692996 c -3.328926,-1.444657 -5.549635,-0.722328 -7.693326,0.146136 0,0 1.373502,2.62627 2.413257,3.536488 1.189513,1.043828 2.498833,1.640897 4.07344,1.916467 1.489031,0.25887 3.16633,0.350726 4.526996,-0.296447 2.866812,-1.356976 4.325891,-4.321446 3.923682,-4.125206 0,0 0.286681,-2.601219 -0.453556,-3.536488 -0.551968,-0.701452 -1.690135,-1.269294 -2.563015,-1.031302 -1.377782,0.375778 -2.113739,3.390352 -2.113739,3.390352 0,0 -1.322157,-2.56364 -1.660184,-3.97907 -0.295239,-1.244243 -0.735958,-2.6889 -0.149759,-3.832935 0.43644,-0.851764 1.4548,-1.448833 2.413257,-1.620021 1.270811,-0.229642 3.619885,0.885166 3.619885,0.885166 0,0 -0.701727,-2.308947 -0.907111,-3.536488 -0.102691,-0.630472 0.05135,-1.473884 0.303797,-2.062603 0.573362,-1.348625 1.480473,-2.058428 2.062393,-2.83086 0.774467,0.755731 1.728645,1.027126 2.622919,2.196213 0.389373,0.513563 0.753073,1.290171 0.812977,1.928993 0.111249,1.235892 0.01284,3.645046 0.01284,3.645046 0,0 1.998211,-1.645072 3.286137,-1.724403 0.975572,-0.06263 2.10946,0.271395 2.747005,0.989548 0.855765,0.964497 0.791583,2.471784 0.817256,3.749429 0.02995,1.453008 -0.607593,4.254641 -0.607593,4.254641 0,0 -1.471916,-2.743179 -2.901043,-2.776581 -0.907111,-0.02088 -1.865567,0.80166 -2.224989,1.615845 -0.483507,1.085581 0.453556,3.536488 0.453556,3.536488 5.648048,4.304745 11.488642,-0.108558 12.686713,-4.413303 V 66.43116 c -2.361911,0.317324 -3.371713,0.722329 -5.733624,3.390352 L 44.349514,59.065913 c 2.263498,1.999974 4.223199,2.718127 6.486697,2.35905 -0.213941,-3.127307 -1.912634,-4.45088 -4.526996,-7.185709 L 48.872231,53.5044 h 7.67621 l 2.563016,0.734854 c -2.614362,2.734829 -4.313055,4.058402 -4.526996,7.185709 2.263498,0.359077 4.223199,-0.359076 6.486697,-2.35905 L 60.318085,69.821512 C 57.956174,67.157664 56.946372,66.748484 54.584461,66.43116 v 1.620021 c 1.198071,4.300569 7.038666,8.718048 12.686714,4.413303 0,0 0.932783,-2.450907 0.453555,-3.536488 -0.359421,-0.814185 -1.322157,-1.636722 -2.224989,-1.615845 -1.429127,0.0334 -2.901042,2.776581 -2.901042,2.776581 0,0 -0.637545,-2.805808 -0.607593,-4.254641 0.02567,-1.277645 -0.03851,-2.784932 0.817255,-3.749429 0.637545,-0.722328 1.775712,-1.052178 2.747005,-0.989548 1.292205,0.08351 3.286137,1.724403 3.286137,1.724403 0,0 -0.09841,-2.409154 0.01284,-3.645046 0.05563,-0.634647 0.419325,-1.41543 0.812977,-1.928993 0.894274,-1.169087 1.459079,-1.695176 2.361911,-2.576167 0.671775,0.822536 1.750039,1.866364 2.323401,3.210814 0.248172,0.588719 0.406489,1.432131 0.303797,2.062603 -0.205384,1.227541 -0.907111,3.536488 -0.907111,3.536488 0,0 2.349075,-1.114808 3.619885,-0.885166 0.958457,0.175363 1.976817,0.768257 2.413257,1.620021 0.586199,1.144035 0.14548,2.584517 -0.149759,3.832935 -0.338027,1.41543 -1.660183,3.97907 -1.660183,3.97907 0,0 -0.735958,-3.014574 -2.11374,-3.390352 -0.87288,-0.237992 -2.011047,0.32985 -2.563015,1.031302 -0.740237,0.935269 -0.453556,3.536488 -0.453556,3.536488 -0.402209,-0.19624 1.05687,2.76823 3.923682,4.125206 1.360666,0.647173 3.037965,0.555317 4.526996,0.296447 1.574607,-0.27557 2.883928,-0.872639 4.073441,-1.916467 1.039754,-0.910218 2.413256,-3.536488 2.413256,-3.536488 -2.14369,-0.868464 -4.3644,-1.590793 -7.693325,-0.146136 l 2.113739,-8.692996 c 1.784269,1.686826 3.31181,4.154434 6.640735,4.713926 -0.02995,-2.993698 0.07702,-5.887188 -1.510425,-10.020745 l 2.930994,0.526089 6.576553,3.448806 c 0,0 -1.300762,2.446732 -2.61864,5.027074 -0.718843,1.398729 -1.441964,2.835036 -1.963981,3.937317 -3.063638,6.438329 -7.333904,20.062366 -7.333904,20.062366 L 84.78868,91.395341 C 62.928168,86.618786 41.563999,87.174102 20.507906,91.027913 v 0 z"
     fill="none"
     stroke="#000000"
     stroke-width="0.240925" /><g
     id="el"
     transform="matrix(0.42788241,0,0,0.41753103,1.7367046,-1.4886122)"><path
       id="em"
       d="m 111.3,183.41 h 15.66 c 2.52,0 4.57,2.05 4.57,4.57 v 5.19 c 0,2.53 -2.05,4.58 -4.58,4.58 h -15.66 c -2.52,0 -4.57,-2.05 -4.57,-4.57 v -5.19 c 0,-2.53 2.05,-4.58 4.58,-4.58 z"
       fill="#1d369e" /><path
       id="en"
       d="m 110.15,194.83 -0.12,-6.59 1.76,-1.53 15.4,-0.12 2.12,3.29 -0.12,4.23 h 2.23 l 0.12,-6.94 -2.82,-4 -18.34,0.24 -3.41,2.59 0.12,7.76 1.18,1.41 1.88,-0.35 v 0 z"
       fill="#4163ef" /><path
       id="eo"
       d="m 107.45,191.65 4.23,2.82 14.58,0.12 1.88,-1.88 0.12,-4.23 2.47,-3.76 1.29,2.59 -0.59,7.65 -2.35,3.18 -17.98,-0.35 -3.76,-2.47 -0.59,-1.53 0.71,-2.12 v 0 c 0,0 0,0 0,0 z"
       fill="#2545cb" /><path
       id="ep"
       d="m 111.3,183.41 h 15.66 c 2.52,0 4.57,2.05 4.57,4.57 v 5.19 c 0,2.53 -2.05,4.58 -4.58,4.58 h -15.66 c -2.52,0 -4.57,-2.05 -4.57,-4.57 v -5.19 c 0,-2.53 2.05,-4.58 4.58,-4.58 z"
       fill="none"
       stroke="#000000"
       stroke-width="0.57" /><path
       id="eq"
       d="m 113.06,187.84 h 4.69 c 0.84,0 1.53,0.69 1.53,1.53 v 0.19 c 0,0.84 -0.69,1.53 -1.53,1.53 h -4.69 c -0.84,0 -1.53,-0.69 -1.53,-1.53 v -0.19 c 0,-0.84 0.69,-1.53 1.53,-1.53 z"
       fill="#5674f1" /></g><ellipse
     id="ft"
     cx="52.706059"
     cy="63.825764"
     fill="#cccccc"
     rx="3.2561853"
     ry="3.1774111"
     style="stroke-width:0.422675" /><ellipse
     id="fu"
     cx="52.466442"
     cy="63.416584"
     rx="2.5245063"
     ry="2.4008033"
     fill="#e6e6e6"
     style="fill:#66ff00;stroke-width:0.422675" /><ellipse
     id="fv"
     cx="52.025723"
     cy="62.485683"
     rx="1.4189012"
     ry="1.1729078"
     fill="#ffffff"
     style="stroke-width:0.294534" /><ellipse
     id="fw"
     cx="52.706059"
     cy="63.825764"
     fill="none"
     stroke="#000000"
     stroke-width="0.240925"
     rx="3.2561853"
     ry="3.1774111" /><g
     id="fy"
     transform="matrix(0.42788241,0,0,0.41753103,1.7367046,-1.4886122)"><circle
       id="fz"
       cx="206.63"
       cy="172.82001"
       fill="#cccccc"
       r="7.6100001" /><ellipse
       id="ga"
       cx="206.07001"
       cy="171.85001"
       rx="5.9000001"
       ry="5.75"
       fill="#e6e6e6"
       style="fill:#71c837" /><ellipse
       id="gb"
       cx="205.90942"
       cy="168.72855"
       rx="2.7553585"
       ry="2.2785459"
       fill="#ffffff"
       style="stroke-width:0.572065" /><circle
       id="gc"
       cx="206.63"
       cy="172.82001"
       fill="none"
       stroke="#000000"
       stroke-width="0.57"
       r="7.6100001" /></g><g
     id="gd"
     transform="matrix(0.42788241,0,0,0.41753103,1.7367046,-1.4886122)"><circle
       id="ge"
       cx="31.610001"
       cy="172.82001"
       fill="#cccccc"
       r="7.6100001" /><ellipse
       id="gf"
       cx="31.049999"
       cy="171.85001"
       rx="5.9000001"
       ry="5.75"
       fill="#e6e6e6"
       style="fill:#66ff00" /><ellipse
       id="gg"
       cx="30.546951"
       cy="169.96175"
       rx="3.6674006"
       ry="2.6335015"
       fill="#ffffff"
       style="stroke-width:0.709534" /><circle
       id="gh"
       cx="31.610001"
       cy="172.82001"
       fill="none"
       stroke="#000000"
       stroke-width="0.57"
       r="7.6100001" /></g><g
     id="gl"
     transform="matrix(0.42788241,0,0,0.41753103,1.7367046,-1.4886122)"><g
       id="gm"><path
         id="gn"
         d="m 45.89,240.89417 c 50.63,-12.48766 99.4,-11.28605 147.18,0.0561 8.23,3.04332 10.09,-18.06893 2.05,-22.56088 -49.82,-16.60905 -138.25,-7.07485 -152.18,0 -4.19,-0.84226 -9.96,21.92078 2.95,22.50474 z"
         fill="#ffffff"
         style="stroke-width:1.05971" /><path
         id="go"
         d="m 45.89,238.11707 c 50.63,-11.54342 99.4,-10.43267 147.18,0.0518 2.73,0.93427 5.56,-4.88934 6.76,-7.49492 -68.42,-17.68884 -109.11,-12.95521 -161.93,0 -0.47,-1.89969 -0.73,1.16265 1.48,3.84087 1.52,1.83741 5.34,3.32186 6.5,3.60214 v 0 z"
         fill="#e6e6e6"
         style="stroke-width:1.01886" /><path
         id="gp"
         d="m 45.886581,236.72948 c 50.632364,-10.84953 99.404649,-9.80556 147.186869,0.0488 8.23039,2.64408 10.09048,-15.69868 2.0501,-19.6014 -49.82232,-14.43027 -138.256457,-6.14677 -152.187106,0 -4.190195,-0.73175 -9.960465,19.04526 2.950137,19.5526 z"
         fill="none"
         stroke="#000000"
         stroke-width="0.582795"
         style="display:none" /></g><g
       id="gq"
       transform="matrix(1,0,0,0.90349935,0,20.733011)"><path
         id="gr"
         d="m 112.84,214.85 c -2.23,0.11 -4.79,0.84 -4.79,0.84 l 6.37,1.61 c 0,0 -1.85,0.43 -3.25,0.93 -1,0.35 -3.74,1.83 -3.74,1.83 l 7.3,0.06 c 0,0 -2.12,1.02 -2.97,1.79 -0.65,0.59 -1.55,2.14 -1.55,2.14 0,0 6.48,-2.66 9.89,-3.31 3.51,-0.67 10.7,-0.59 10.7,-0.59 l -4.02,-2.01 c 0,0 -3.85,-0.6 -7.11,-1.61 -1.86,-0.57 -4.04,-1.59 -5.91,-1.67 -0.3,-0.01 -0.61,-0.02 -0.93,0 z m -29.34,1.39 c -0.24,0 -0.48,0.01 -0.71,0.03 -2.36,0.2 -5.6,1.55 -5.6,1.55 l 6.56,0.77 c 0,0 -1.8,0.69 -3.12,1.36 -0.95,0.48 -3.46,2.29 -3.46,2.29 l 7.24,-0.87 c 0,0 -1.98,1.25 -2.72,2.14 -0.56,0.67 -1.24,2.32 -1.24,2.32 0,0 6.07,-3.46 9.37,-4.55 3.4,-1.12 10.54,-1.98 10.54,-1.98 l -4.24,-1.49 c 0,0 -3.9,-0.07 -7.27,-0.65 -1.68,-0.29 -3.64,-0.89 -5.35,-0.93 v 0 z m 59.99,0.28 c -2.23,-0.03 -4.85,0.56 -4.85,0.56 l 6.28,1.98 c 0,0 -1.88,0.33 -3.31,0.74 -1.02,0.29 -3.83,1.61 -3.83,1.61 l 7.27,0.5 c 0,0 -2.17,0.85 -3.06,1.58 -0.68,0.55 -1.67,2.04 -1.67,2.04 0,0 6.63,-2.25 10.08,-2.69 3.55,-0.46 10.73,0.06 10.73,0.06 l -3.9,-2.26 c 0,0 -3.82,-0.84 -7.02,-2.04 -1.83,-0.69 -3.93,-1.82 -5.78,-2.01 -0.29,-0.03 -0.61,-0.06 -0.93,-0.06 z m -89.52,3 c -0.51,0 -1,0.03 -1.45,0.12 -2.32,0.47 -5.38,2.2 -5.38,2.2 h 6.59 c 0,0 -1.7,0.88 -2.94,1.7 -0.88,0.59 -3.15,2.69 -3.15,2.69 l 7.08,-1.7 c 0,0 -1.81,1.48 -2.44,2.44 -0.48,0.73 -0.99,2.44 -0.99,2.44 0,0 5.63,-4.17 8.78,-5.63 3.24,-1.51 10.27,-3.16 10.27,-3.16 l -4.42,-0.99 c 0,0 -3.86,0.37 -7.27,0.19 -1.46,-0.08 -3.15,-0.34 -4.67,-0.31 z m 117.44,0.59 c -1.16,0.03 -2.04,0.12 -2.04,0.12 l 6.06,2.63 c 0,0 -1.91,0.14 -3.37,0.4 -1.04,0.18 -3.99,1.18 -3.99,1.18 l 7.17,1.27 c 0,0 -2.25,0.64 -3.22,1.27 -0.73,0.48 -1.86,1.86 -1.86,1.86 0,0 6.82,-1.59 10.3,-1.67 3.57,-0.09 10.67,1.18 10.67,1.18 l -3.65,-2.63 c 0,0 -3.72,-1.23 -6.77,-2.75 -1.75,-0.87 -3.71,-2.21 -5.53,-2.6 -1.16,-0.25 -2.61,-0.28 -3.77,-0.25 z"
         fill="#333333" /></g></g><ellipse
     id="gg-89"
     cx="7.2952371"
     cy="45.989464"
     rx="1.5692163"
     ry="1.0995686"
     fill="#ffffff"
     style="stroke-width:0.299902"
     inkscape:transform-center-x="3.161697"
     inkscape:transform-center-y="-20.024081" /><ellipse
     id="gg-2"
     cx="11.678251"
     cy="39.286461"
     rx="1.5692163"
     ry="1.0995686"
     fill="#ffffff"
     style="stroke-width:0.299902" /><ellipse
     id="gg-5"
     cx="16.673647"
     cy="32.324261"
     rx="1.5692163"
     ry="1.0995686"
     fill="#ffffff"
     style="stroke-width:0.299902"
     inkscape:transform-center-x="5.9720943"
     inkscape:transform-center-y="-11.592889" /><ellipse
     id="gg-3"
     cx="22.917686"
     cy="26.918858"
     rx="1.5692163"
     ry="1.0995686"
     fill="#ffffff"
     style="stroke-width:0.299902"
     inkscape:transform-center-x="10.89029"
     inkscape:transform-center-y="-9.8363906" /><ellipse
     id="gg-0"
     cx="30.330063"
     cy="22.777706"
     rx="1.5692163"
     ry="1.0995686"
     fill="#ffffff"
     style="stroke-width:0.299902"
     inkscape:transform-center-x="13.700687"
     inkscape:transform-center-y="-6.323394" /><ellipse
     id="gg-1"
     cx="37.555485"
     cy="19.573284"
     rx="1.5692163"
     ry="1.0995686"
     fill="#ffffff"
     style="stroke-width:0.299902"
     inkscape:transform-center-x="55.154047"
     inkscape:transform-center-y="-0.70259933" /><ellipse
     id="gg-16"
     cx="67.504318"
     cy="19.446239"
     rx="1.5692163"
     ry="1.0995686"
     fill="#ffffff"
     style="stroke-width:0.299902" /><ellipse
     id="gg-6"
     cx="75.747757"
     cy="23.05941"
     rx="1.5692163"
     ry="1.0995686"
     fill="#ffffff"
     style="stroke-width:0.299902" /><ellipse
     id="gg-34"
     cx="82.927872"
     cy="27.438061"
     rx="1.5692163"
     ry="1.0995686"
     fill="#ffffff"
     style="stroke-width:0.299902"
     inkscape:transform-center-x="-17.916283"
     inkscape:transform-center-y="-13.349387" /><ellipse
     id="gg-4"
     cx="89.21804"
     cy="32.921024"
     rx="1.5692163"
     ry="1.0995686"
     fill="#ffffff"
     style="stroke-width:0.299902"
     inkscape:transform-center-y="-7.0259933" /><ellipse
     id="gg-4-2"
     cx="94.872757"
     cy="39.499855"
     rx="1.5692163"
     ry="1.0995686"
     fill="#ffffff"
     style="stroke-width:0.299902"
     inkscape:transform-center-y="-7.0259933" /><ellipse
     id="gg-4-21"
     cx="98.399193"
     cy="46.664597"
     rx="1.5692163"
     ry="1.0995686"
     fill="#ffffff"
     style="stroke-width:0.299902"
     inkscape:transform-center-y="-7.0259933" /><ellipse
     id="gg-4-9"
     cx="100.98955"
     cy="54.235214"
     rx="1.5692163"
     ry="1.0995686"
     fill="#ffffff"
     style="stroke-width:0.299902"
     inkscape:transform-center-y="-7.0259933" /></svg>
